Jinko-Bold.ufo
<glyph name="exclam" format="1">
  <advance width="591"/>
  <unicode hex="0021"/>
  <outline>
    <contour>
      <point x="306" y="-18" type="curve" smooth="yes"/>
      <point x="414" y="-18"/>
      <point x="501" y="70"/>
      <point x="501" y="176" type="curve" smooth="yes"/>
      <point x="501" y="284"/>
      <point x="414" y="371"/>
      <point x="306" y="371" type="curve" smooth="yes"/>
      <point x="200" y="371"/>
      <point x="112" y="284"/>
      <point x="112" y="176" type="curve" smooth="yes"/>
      <point x="112" y="70"/>
      <point x="200" y="-18"/>
    </contour>
    <contour>
      <point x="224" y="523" type="line"/>
      <point x="391" y="523" type="line"/>
      <point x="491" y="1481" type="line"/>
      <point x="121" y="1481" type="line"/>
    </contour>
  </outline>
</glyph>
<glyph name="quotedbl" format="1">
  <advance width="896"/>
  <unicode hex="0022"/>
  <outline>
    <contour>
      <point x="155" y="964" type="line"/>
      <point x="353" y="964" type="line"/>
      <point x="398" y="1481" type="line"/>
      <point x="108" y="1481" type="line"/>
    </contour>
    <contour>
      <point x="547" y="964" type="line"/>
      <point x="745" y="964" type="line"/>
      <point x="791" y="1481" type="line"/>
      <point x="502" y="1481" type="line"/>
    </contour>
  </outline>
</glyph>
<glyph name="numbersign" format="1">
  <advance width="1444"/>
  <unicode hex="0023"/>
  <outline>
    <contour>
      <point x="215" y="10" type="line"/>
      <point x="437" y="10" type="line"/>
      <point x="519" y="387" type="line"/>
      <point x="776" y="387" type="line"/>
      <point x="696" y="10" type="line"/>
      <point x="918" y="10" type="line"/>
      <point x="1000" y="387" type="line"/>
      <point x="1294" y="387" type="line"/>
      <point x="1294" y="583" type="line"/>
      <point x="1042" y="583" type="line"/>
      <point x="1121" y="918" type="line"/>
      <point x="1389" y="918" type="line"/>
      <point x="1389" y="1111" type="line"/>
      <point x="1166" y="1111" type="line"/>
      <point x="1243" y="1467" type="line"/>
      <point x="1018" y="1467" type="line"/>
      <point x="942" y="1111" type="line"/>
      <point x="688" y="1111" type="line"/>
      <point x="762" y="1467" type="line"/>
      <point x="537" y="1467" type="line"/>
      <point x="461" y="1111" type="line"/>
      <point x="157" y="1111" type="line"/>
      <point x="157" y="918" type="line"/>
      <point x="418" y="918" type="line"/>
      <point x="338" y="583" type="line"/>
      <point x="58" y="583" type="line"/>
      <point x="58" y="387" type="line"/>
      <point x="295" y="387" type="line"/>
    </contour>
    <contour>
      <point x="563" y="581" type="line"/>
      <point x="642" y="921" type="line"/>
      <point x="900" y="921" type="line"/>
      <point x="822" y="581" type="line"/>
    </contour>
  </outline>
</glyph>
<glyph name="dollar" format="1">
  <advance width="1219"/>
  <unicode hex="0024"/>
  <outline>
    <contour>
      <point x="538" y="-275" type="line"/>
      <point x="688" y="-275" type="line"/>
      <point x="688" y="-6" type="line"/>
      <point x="978" y="15"/>
      <point x="1169" y="193"/>
      <point x="1169" y="425" type="curve" smooth="yes"/>
      <point x="1169" y="670"/>
      <point x="1028" y="776"/>
      <point x="684" y="852" type="curve"/>
      <point x="684" y="1185" type="line"/>
      <point x="802" y="1181"/>
      <point x="914" y="1154"/>
      <point x="1005" y="1099" type="curve"/>
      <point x="1049" y="1099" type="line"/>
      <point x="1087" y="1324" type="line"/>
      <point x="992" y="1380"/>
      <point x="818" y="1425"/>
      <point x="688" y="1429" type="curve"/>
      <point x="688" y="1601" type="line"/>
      <point x="538" y="1601" type="line"/>
      <point x="538" y="1427" type="line"/>
      <point x="254" y="1398"/>
      <point x="75" y="1245"/>
      <point x="75" y="1021" type="curve" smooth="yes"/>
      <point x="75" y="733"/>
      <point x="289" y="647"/>
      <point x="541" y="590" type="curve"/>
      <point x="541" y="234" type="line"/>
      <point x="407" y="239"/>
      <point x="227" y="292"/>
      <point x="155" y="354" type="curve"/>
      <point x="114" y="354" type="line"/>
      <point x="66" y="123" type="line"/>
      <point x="175" y="48"/>
      <point x="379" y="-8"/>
      <point x="538" y="-10" type="curve"/>
    </contour>
    <contour>
      <point x="681" y="237" type="curve" smooth="yes"/>
      <point x="681" y="567" type="line"/>
      <point x="807" y="539"/>
      <point x="847" y="477"/>
      <point x="847" y="402" type="curve"/>
      <point x="847" y="321"/>
      <point x="793" y="260"/>
      <point x="694" y="241" type="curve" smooth="yes"/>
      <point x="691" y="239"/>
      <point x="684" y="238"/>
    </contour>
    <contour>
      <point x="547" y="875" type="line"/>
      <point x="418" y="908"/>
      <point x="392" y="955"/>
      <point x="392" y="1024" type="curve" smooth="yes"/>
      <point x="392" y="1114"/>
      <point x="457" y="1172"/>
      <point x="547" y="1183" type="curve"/>
    </contour>
  </outline>
</glyph>
<glyph name="percent" format="1">
  <advance width="2064"/>
  <unicode hex="0025"/>
  <outline>
    <contour>
      <point x="460" y="826" type="curve" smooth="yes"/>
      <point x="362" y="826"/>
      <point x="316" y="932"/>
      <point x="316" y="1038" type="curve" smooth="yes"/>
      <point x="316" y="1149"/>
      <point x="367" y="1263"/>
      <point x="460" y="1263" type="curve" smooth="yes"/>
      <point x="555" y="1263"/>
      <point x="601" y="1159"/>
      <point x="601" y="1054" type="curve" smooth="yes"/>
      <point x="601" y="942"/>
      <point x="550" y="826"/>
    </contour>
    <contour>
      <point x="460" y="629" type="curve" smooth="yes"/>
      <point x="707" y="629"/>
      <point x="837" y="841"/>
      <point x="837" y="1052" type="curve" smooth="yes"/>
      <point x="837" y="1258"/>
      <point x="714" y="1458"/>
      <point x="460" y="1459" type="curve"/>
      <point x="204" y="1456"/>
      <point x="77" y="1250"/>
      <point x="77" y="1041" type="curve" smooth="yes"/>
      <point x="77" y="834"/>
      <point x="205" y="629"/>
    </contour>
    <contour>
      <point x="525" y="0" type="line"/>
      <point x="777" y="0" type="line"/>
      <point x="1541" y="1455" type="line"/>
      <point x="1288" y="1455" type="line"/>
    </contour>
    <contour>
      <point x="1607" y="194" type="curve" smooth="yes"/>
      <point x="1511" y="194"/>
      <point x="1465" y="298"/>
      <point x="1465" y="404" type="curve" smooth="yes"/>
      <point x="1465" y="515"/>
      <point x="1514" y="630"/>
      <point x="1603" y="633" type="curve" smooth="yes"/>
      <point x="1699" y="633"/>
      <point x="1746" y="525"/>
      <point x="1746" y="416" type="curve" smooth="yes"/>
      <point x="1746" y="306"/>
      <point x="1699" y="194"/>
    </contour>
    <contour>
      <point x="1607" y="-3" type="curve" smooth="yes"/>
      <point x="1854" y="-3"/>
      <point x="1983" y="211"/>
      <point x="1983" y="421" type="curve" smooth="yes"/>
      <point x="1983" y="627"/>
      <point x="1861" y="827"/>
      <point x="1607" y="827" type="curve"/>
      <point x="1352" y="824"/>
      <point x="1224" y="618"/>
      <point x="1224" y="409" type="curve" smooth="yes"/>
      <point x="1224" y="202"/>
      <point x="1352" y="-3"/>
    </contour>
  </outline>
</glyph>
<glyph name="ampersand" format="1">
  <advance width="1557"/>
  <unicode hex="0026"/>
  <outline>
    <contour>
      <point x="630" y="-24" type="curve" smooth="yes"/>
      <point x="790" y="-24"/>
      <point x="933" y="21"/>
      <point x="1069" y="109" type="curve"/>
      <point x="1081" y="97"/>
      <point x="1192" y="0"/>
      <point x="1192" y="0" type="curve"/>
      <point x="1615" y="0" type="line"/>
      <point x="1615" y="0"/>
      <point x="1316" y="267"/>
      <point x="1280" y="302" type="curve"/>
      <point x="1416" y="430"/>
      <point x="1437" y="599"/>
      <point x="1447" y="751" type="curve"/>
      <point x="1142" y="775" type="line"/>
      <point x="1144" y="721"/>
      <point x="1138" y="557"/>
      <point x="1089" y="479" type="curve"/>
      <point x="994" y="574"/>
      <point x="866" y="703"/>
      <point x="772" y="800" type="curve"/>
      <point x="1023" y="900"/>
      <point x="1100" y="1030"/>
      <point x="1097" y="1181" type="curve"/>
      <point x="1094" y="1358"/>
      <point x="944" y="1504"/>
      <point x="647" y="1504" type="curve"/>
      <point x="294" y="1504"/>
      <point x="169" y="1320"/>
      <point x="169" y="1154" type="curve" smooth="yes"/>
      <point x="169" y="1013"/>
      <point x="257" y="919"/>
      <point x="346" y="837" type="curve"/>
      <point x="187" y="757"/>
      <point x="66" y="634"/>
      <point x="66" y="433" type="curve" smooth="yes"/>
      <point x="66" y="171"/>
      <point x="278" y="-24"/>
    </contour>
    <contour>
      <point x="648" y="214" type="curve" smooth="yes"/>
      <point x="512" y="219"/>
      <point x="394" y="313"/>
      <point x="394" y="465" type="curve" smooth="yes"/>
      <point x="394" y="544"/>
      <point x="442" y="625"/>
      <point x="505" y="668" type="curve"/>
      <point x="641" y="532"/>
      <point x="769" y="406"/>
      <point x="905" y="274" type="curve"/>
      <point x="822" y="225"/>
      <point x="760" y="207"/>
    </contour>
    <contour>
      <point x="630" y="943" type="curve"/>
      <point x="549" y="1026"/>
      <point x="490" y="1089"/>
      <point x="493" y="1164" type="curve"/>
      <point x="496" y="1264"/>
      <point x="569" y="1296"/>
      <point x="630" y="1296" type="curve"/>
      <point x="705" y="1296"/>
      <point x="783" y="1265"/>
      <point x="783" y="1149" type="curve" smooth="yes"/>
      <point x="783" y="1075"/>
      <point x="742" y="1009"/>
    </contour>
  </outline>
</glyph>
<glyph name="quotesingle" format="1">
  <advance width="514"/>
  <unicode hex="0027"/>
  <outline>
    <contour>
      <point x="156" y="850" type="line"/>
      <point x="350" y="850" type="line"/>
      <point x="404" y="1481" type="line"/>
      <point x="114" y="1481" type="line"/>
    </contour>
  </outline>
</glyph>
<glyph name="parenleft" format="1">
  <advance width="780"/>
  <unicode hex="0028"/>
  <outline>
    <contour>
      <point x="446" y="-333" type="curve"/>
      <point x="739" y="-333" type="line"/>
      <point x="734" y="-314"/>
      <point x="730" y="-293"/>
      <point x="726" y="-273" type="curve"/>
      <point x="549" y="-76"/>
      <point x="383" y="216"/>
      <point x="383" y="582" type="curve" smooth="yes"/>
      <point x="383" y="953"/>
      <point x="553" y="1239"/>
      <point x="726" y="1437" type="curve"/>
      <point x="730" y="1457"/>
      <point x="734" y="1477"/>
      <point x="739" y="1497" type="curve"/>
      <point x="446" y="1497" type="line"/>
      <point x="225" y="1248"/>
      <point x="79" y="971"/>
      <point x="79" y="582" type="curve" smooth="yes"/>
      <point x="79" y="200"/>
      <point x="227" y="-84"/>
    </contour>
  </outline>
</glyph>
<glyph name="parenright" format="1">
  <advance width="780"/>
  <unicode hex="0029"/>
  <outline>
    <contour>
      <point x="44" y="-333" type="curve"/>
      <point x="337" y="-333" type="line"/>
      <point x="557" y="-83"/>
      <point x="703" y="210"/>
      <point x="703" y="582" type="curve" smooth="yes"/>
      <point x="703" y="978"/>
      <point x="559" y="1248"/>
      <point x="337" y="1497" type="curve"/>
      <point x="44" y="1497" type="line"/>
      <point x="49" y="1477"/>
      <point x="53" y="1459"/>
      <point x="56" y="1437" type="curve"/>
      <point x="226" y="1244"/>
      <point x="399" y="955"/>
      <point x="399" y="582" type="curve" smooth="yes"/>
      <point x="399" y="214"/>
      <point x="237" y="-73"/>
      <point x="56" y="-273" type="curve"/>
      <point x="53" y="-293"/>
      <point x="49" y="-314"/>
    </contour>
  </outline>
</glyph>
<glyph name="asterisk" format="1">
  <advance width="1062"/>
  <unicode hex="002A"/>
  <outline>
    <contour>
      <point x="495" y="594" type="curve"/>
      <point x="551" y="594"/>
      <point x="605" y="621"/>
      <point x="620" y="672" type="curve"/>
      <point x="620" y="762"/>
      <point x="577" y="875"/>
      <point x="561" y="965" type="curve"/>
      <point x="622" y="912"/>
      <point x="692" y="819"/>
      <point x="761" y="777" type="curve" smooth="yes"/>
      <point x="781" y="764"/>
      <point x="803" y="757"/>
      <point x="825" y="755" type="curve"/>
      <point x="871" y="768"/>
      <point x="913" y="815"/>
      <point x="924" y="866" type="curve"/>
      <point x="915" y="988"/>
      <point x="711" y="991"/>
      <point x="599" y="1042" type="curve"/>
      <point x="710" y="1091"/>
      <point x="919" y="1100"/>
      <point x="924" y="1219" type="curve"/>
      <point x="913" y="1268"/>
      <point x="871" y="1316"/>
      <point x="825" y="1329" type="curve"/>
      <point x="737" y="1323"/>
      <point x="649" y="1199"/>
      <point x="576" y="1130" type="curve" smooth="yes"/>
      <point x="570" y="1125"/>
      <point x="563" y="1120"/>
      <point x="558" y="1117" type="curve"/>
      <point x="573" y="1202"/>
      <point x="619" y="1303"/>
      <point x="619" y="1388" type="curve" smooth="yes"/>
      <point x="619" y="1447"/>
      <point x="578" y="1482"/>
      <point x="538" y="1490" type="curve" smooth="yes"/>
      <point x="482" y="1490"/>
      <point x="430" y="1464"/>
      <point x="415" y="1413" type="curve"/>
      <point x="415" y="1319"/>
      <point x="463" y="1212"/>
      <point x="474" y="1117" type="curve"/>
      <point x="410" y="1168"/>
      <point x="341" y="1262"/>
      <point x="272" y="1305" type="curve" smooth="yes"/>
      <point x="251" y="1318"/>
      <point x="230" y="1327"/>
      <point x="208" y="1329" type="curve"/>
      <point x="161" y="1316"/>
      <point x="120" y="1268"/>
      <point x="110" y="1219" type="curve"/>
      <point x="115" y="1099"/>
      <point x="318" y="1091"/>
      <point x="434" y="1042" type="curve"/>
      <point x="321" y="994"/>
      <point x="118" y="987"/>
      <point x="110" y="866" type="curve"/>
      <point x="120" y="815"/>
      <point x="161" y="768"/>
      <point x="208" y="755" type="curve"/>
      <point x="291" y="761"/>
      <point x="384" y="882"/>
      <point x="456" y="952" type="curve" smooth="yes"/>
      <point x="462" y="957"/>
      <point x="469" y="962"/>
      <point x="472" y="965" type="curve"/>
      <point x="459" y="883"/>
      <point x="414" y="781"/>
      <point x="414" y="698" type="curve" smooth="yes"/>
      <point x="414" y="637"/>
      <point x="454" y="603"/>
    </contour>
  </outline>
</glyph>
<glyph name="plus" format="1">
  <advance width="1423"/>
  <unicode hex="002B"/>
  <outline>
    <contour>
      <point x="595" y="6" type="line"/>
      <point x="830" y="6" type="line"/>
      <point x="830" y="466" type="line"/>
      <point x="1291" y="466" type="line"/>
      <point x="1291" y="686" type="line"/>
      <point x="830" y="686" type="line"/>
      <point x="830" y="1134" type="line"/>
      <point x="595" y="1134" type="line"/>
      <point x="595" y="686" type="line"/>
      <point x="134" y="686" type="line"/>
      <point x="134" y="466" type="line"/>
      <point x="595" y="466" type="line"/>
    </contour>
  </outline>
</glyph>
<glyph name="comma" format="1">
  <advance width="529"/>
  <unicode hex="002C"/>
  <outline>
    <contour>
      <point x="105" y="-263" type="line"/>
      <point x="267" y="-263" type="line"/>
      <point x="460" y="299" type="line"/>
      <point x="156" y="299" type="line"/>
    </contour>
  </outline>
</glyph>
<glyph name="hyphen" format="1">
  <advance width="836"/>
  <unicode hex="002D"/>
  <outline>
    <contour>
      <point x="94" y="480" type="line"/>
      <point x="743" y="480" type="line"/>
      <point x="743" y="706" type="line"/>
      <point x="94" y="706" type="line"/>
    </contour>
  </outline>
</glyph>
<glyph name="period" format="1">
  <advance width="627"/>
  <unicode hex="002E"/>
  <outline>
    <contour>
      <point x="319" y="-18" type="curve" smooth="yes"/>
      <point x="427" y="-18"/>
      <point x="514" y="70"/>
      <point x="514" y="176" type="curve" smooth="yes"/>
      <point x="514" y="284"/>
      <point x="427" y="371"/>
      <point x="319" y="371" type="curve" smooth="yes"/>
      <point x="212" y="371"/>
      <point x="124" y="284"/>
      <point x="124" y="176" type="curve" smooth="yes"/>
      <point x="124" y="70"/>
      <point x="212" y="-18"/>
    </contour>
  </outline>
</glyph>
<glyph name="zero" format="1">
  <advance width="1353"/>
  <unicode hex="0030"/>
  <outline>
    <contour>
      <point x="677" y="207" type="curve" smooth="yes"/>
      <point x="465" y="207"/>
      <point x="438" y="407"/>
      <point x="438" y="741" type="curve" smooth="yes"/>
      <point x="438" y="1066"/>
      <point x="471" y="1252"/>
      <point x="677" y="1252" type="curve" smooth="yes"/>
      <point x="879" y="1252"/>
      <point x="914" y="1065"/>
      <point x="914" y="741" type="curve" smooth="yes"/>
      <point x="914" y="410"/>
      <point x="886" y="207"/>
    </contour>
    <contour>
      <point x="677" y="-24" type="curve" smooth="yes"/>
      <point x="1091" y="-24"/>
      <point x="1254" y="257"/>
      <point x="1254" y="712" type="curve" smooth="yes"/>
      <point x="1254" y="1170"/>
      <point x="1114" y="1503"/>
      <point x="677" y="1503" type="curve" smooth="yes"/>
      <point x="259" y="1503"/>
      <point x="99" y="1211"/>
      <point x="99" y="768" type="curve" smooth="yes"/>
      <point x="99" y="301"/>
      <point x="241" y="-24"/>
    </contour>
  </outline>
</glyph>
<glyph name="two" format="1">
  <advance width="1222"/>
  <unicode hex="0032"/>
  <outline>
    <contour>
      <point x="106" y="0" type="line"/>
      <point x="1151" y="0" type="line"/>
      <point x="1151" y="254" type="line"/>
      <point x="540" y="254" type="line"/>
      <point x="795" y="465"/>
      <point x="1116" y="770"/>
      <point x="1116" y="1066" type="curve" smooth="yes"/>
      <point x="1116" y="1333"/>
      <point x="930" y="1503"/>
      <point x="592" y="1503" type="curve" smooth="yes"/>
      <point x="424" y="1503"/>
      <point x="205" y="1435"/>
      <point x="130" y="1369" type="curve"/>
      <point x="198" y="1129" type="line"/>
      <point x="256" y="1166"/>
      <point x="422" y="1234"/>
      <point x="551" y="1234" type="curve" smooth="yes"/>
      <point x="693" y="1234"/>
      <point x="775" y="1177"/>
      <point x="775" y="1033" type="curve"/>
      <point x="775" y="804"/>
      <point x="333" y="413"/>
      <point x="106" y="218" type="curve"/>
    </contour>
  </outline>
</glyph>
<glyph name="four" format="1">
  <advance width="1277"/>
  <unicode hex="0034"/>
  <outline>
    <contour>
      <point x="724" y="0" type="line"/>
      <point x="1057" y="0" type="line"/>
      <point x="1057" y="245" type="line"/>
      <point x="1230" y="245" type="line"/>
      <point x="1230" y="480" type="line"/>
      <point x="1057" y="480" type="line"/>
      <point x="1057" y="1481" type="line"/>
      <point x="582" y="1481" type="line"/>
      <point x="51" y="485" type="line"/>
      <point x="51" y="245" type="line"/>
      <point x="724" y="245" type="line"/>
    </contour>
    <contour>
      <point x="356" y="480" type="line"/>
      <point x="724" y="1209" type="line"/>
      <point x="724" y="480" type="line"/>
    </contour>
  </outline>
</glyph>
<glyph name="five" format="1">
  <advance width="1216"/>
  <unicode hex="0035"/>
  <outline>
    <contour>
      <point x="573" y="-24" type="curve" smooth="yes"/>
      <point x="935" y="-24"/>
      <point x="1162" y="131"/>
      <point x="1162" y="471" type="curve" smooth="yes"/>
      <point x="1162" y="815"/>
      <point x="837" y="909"/>
      <point x="612" y="928" type="curve" smooth="yes"/>
      <point x="574" y="932"/>
      <point x="447" y="941"/>
      <point x="447" y="942" type="curve" smooth="yes"/>
      <point x="447" y="1227" type="line"/>
      <point x="1051" y="1227" type="line"/>
      <point x="1051" y="1481" type="line"/>
      <point x="134" y="1481" type="line"/>
      <point x="134" y="738" type="line"/>
      <point x="134" y="738"/>
      <point x="372" y="722"/>
      <point x="480" y="715" type="curve" smooth="yes"/>
      <point x="696" y="699"/>
      <point x="822" y="623"/>
      <point x="822" y="464" type="curve" smooth="yes"/>
      <point x="822" y="316"/>
      <point x="733" y="238"/>
      <point x="529" y="238" type="curve" smooth="yes"/>
      <point x="289" y="238"/>
      <point x="165" y="369"/>
      <point x="165" y="369" type="curve" smooth="yes"/>
      <point x="102" y="369" type="line"/>
      <point x="102" y="111" type="line"/>
      <point x="198" y="30"/>
      <point x="358" y="-24"/>
    </contour>
  </outline>
</glyph>
<glyph name="six" format="1">
  <advance width="1239"/>
  <unicode hex="0036"/>
  <outline>
    <contour>
      <point x="640" y="-24" type="curve" smooth="yes"/>
      <point x="966" y="-24"/>
      <point x="1177" y="169"/>
      <point x="1177" y="487" type="curve" smooth="yes"/>
      <point x="1177" y="788"/>
      <point x="1003" y="945"/>
      <point x="754" y="945" type="curve" smooth="yes"/>
      <point x="660" y="945"/>
      <point x="545" y="901"/>
      <point x="473" y="845" type="curve"/>
      <point x="538" y="1100"/>
      <point x="731" y="1220"/>
      <point x="1028" y="1247" type="curve"/>
      <point x="976" y="1482" type="line" smooth="yes"/>
      <point x="401" y="1457"/>
      <point x="100" y="1111"/>
      <point x="100" y="555" type="curve" smooth="yes"/>
      <point x="100" y="191"/>
      <point x="312" y="-24"/>
    </contour>
    <contour>
      <point x="626" y="205" type="curve" smooth="yes"/>
      <point x="491" y="205"/>
      <point x="423" y="325"/>
      <point x="423" y="464" type="curve" smooth="yes"/>
      <point x="423" y="589"/>
      <point x="496" y="711"/>
      <point x="634" y="712" type="curve" smooth="yes"/>
      <point x="753" y="712"/>
      <point x="847" y="635"/>
      <point x="847" y="477" type="curve" smooth="yes"/>
      <point x="847" y="318"/>
      <point x="784" y="205"/>
    </contour>
  </outline>
</glyph>
<glyph name="eight" format="1">
  <advance width="1309"/>
  <unicode hex="0038"/>
  <outline>
    <contour>
      <point x="654" y="-25" type="curve" smooth="yes"/>
      <point x="1011" y="-25"/>
      <point x="1225" y="161"/>
      <point x="1225" y="420" type="curve" smooth="yes"/>
      <point x="1225" y="585"/>
      <point x="1132" y="713"/>
      <point x="956" y="792" type="curve"/>
      <point x="1125" y="875"/>
      <point x="1186" y="1045"/>
      <point x="1184" y="1156" type="curve"/>
      <point x="1172" y="1353"/>
      <point x="995" y="1505"/>
      <point x="656" y="1505" type="curve" smooth="yes"/>
      <point x="317" y="1505"/>
      <point x="122" y="1321"/>
      <point x="122" y="1110" type="curve" smooth="yes"/>
      <point x="122" y="999"/>
      <point x="180" y="848"/>
      <point x="359" y="756" type="curve"/>
      <point x="197" y="681"/>
      <point x="84" y="575"/>
      <point x="84" y="402" type="curve" smooth="yes"/>
      <point x="84" y="167"/>
      <point x="278" y="-25"/>
    </contour>
    <contour>
      <point x="668" y="216" type="curve" smooth="yes"/>
      <point x="512" y="216"/>
      <point x="414" y="303"/>
      <point x="414" y="438" type="curve" smooth="yes"/>
      <point x="414" y="551"/>
      <point x="512" y="634"/>
      <point x="575" y="665" type="curve"/>
      <point x="861" y="620"/>
      <point x="890" y="475"/>
      <point x="890" y="404" type="curve" smooth="yes"/>
      <point x="890" y="288"/>
      <point x="782" y="216"/>
    </contour>
    <contour>
      <point x="742" y="881" type="curve"/>
      <point x="568" y="938"/>
      <point x="458" y="987"/>
      <point x="458" y="1110" type="curve" smooth="yes"/>
      <point x="458" y="1216"/>
      <point x="567" y="1267"/>
      <point x="660" y="1267" type="curve" smooth="yes"/>
      <point x="778" y="1267"/>
      <point x="862" y="1202"/>
      <point x="862" y="1096" type="curve" smooth="yes"/>
      <point x="862" y="987"/>
      <point x="791" y="921"/>
    </contour>
  </outline>
</glyph>
<glyph name="nine" format="1">
  <advance width="1243"/>
  <unicode hex="0039"/>
  <outline>
    <contour>
      <point x="271" y="-8" type="curve" smooth="yes"/>
      <point x="875" y="-7"/>
      <point x="1150" y="382"/>
      <point x="1154" y="893" type="curve" smooth="yes"/>
      <point x="1154" y="1281"/>
      <point x="943" y="1495"/>
      <point x="612" y="1495" type="curve" smooth="yes"/>
      <point x="287" y="1495"/>
      <point x="71" y="1299"/>
      <point x="71" y="985" type="curve" smooth="yes"/>
      <point x="71" y="649"/>
      <point x="309" y="528"/>
      <point x="498" y="528" type="curve" smooth="yes"/>
      <point x="564" y="528"/>
      <point x="685" y="548"/>
      <point x="768" y="619" type="curve"/>
      <point x="692" y="295"/>
      <point x="319" y="221"/>
      <point x="219" y="213" type="curve"/>
      <point x="235" y="157"/>
      <point x="258" y="50"/>
    </contour>
    <contour>
      <point x="617" y="765" type="curve" smooth="yes"/>
      <point x="496" y="765"/>
      <point x="407" y="837"/>
      <point x="407" y="1007" type="curve" smooth="yes"/>
      <point x="407" y="1186"/>
      <point x="502" y="1259"/>
      <point x="619" y="1259" type="curve" smooth="yes"/>
      <point x="747" y="1259"/>
      <point x="815" y="1154"/>
      <point x="815" y="991" type="curve" smooth="yes"/>
      <point x="815" y="881"/>
      <point x="757" y="765"/>
    </contour>
  </outline>
</glyph>
<glyph name="colon" format="1">
  <advance width="569"/>
  <unicode hex="003A"/>
  <outline>
    <contour>
      <point x="283" y="0" type="curve" smooth="yes"/>
      <point x="390" y="0"/>
      <point x="476" y="85"/>
      <point x="476" y="192" type="curve" smooth="yes"/>
      <point x="476" y="298"/>
      <point x="390" y="383"/>
      <point x="283" y="383" type="curve" smooth="yes"/>
      <point x="177" y="383"/>
      <point x="91" y="298"/>
      <point x="91" y="192" type="curve" smooth="yes"/>
      <point x="91" y="85"/>
      <point x="177" y="0"/>
    </contour>
    <contour>
      <point x="283" y="650" type="curve" smooth="yes"/>
      <point x="390" y="650"/>
      <point x="476" y="735"/>
      <point x="476" y="842" type="curve" smooth="yes"/>
      <point x="476" y="948"/>
      <point x="390" y="1034"/>
      <point x="283" y="1034" type="curve" smooth="yes"/>
      <point x="177" y="1034"/>
      <point x="91" y="948"/>
      <point x="91" y="842" type="curve" smooth="yes"/>
      <point x="91" y="735"/>
      <point x="177" y="650"/>
    </contour>
  </outline>
</glyph>
<glyph name="semicolon" format="1">
  <advance width="584"/>
  <unicode hex="003B"/>
  <outline>
    <contour>
      <point x="119" y="-263" type="line"/>
      <point x="282" y="-263" type="line"/>
      <point x="475" y="299" type="line"/>
      <point x="170" y="299" type="line"/>
    </contour>
    <contour>
      <point x="291" y="650" type="curve" smooth="yes"/>
      <point x="398" y="650"/>
      <point x="484" y="735"/>
      <point x="484" y="842" type="curve" smooth="yes"/>
      <point x="484" y="948"/>
      <point x="398" y="1034"/>
      <point x="291" y="1034" type="curve" smooth="yes"/>
      <point x="185" y="1034"/>
      <point x="99" y="948"/>
      <point x="99" y="842" type="curve" smooth="yes"/>
      <point x="99" y="735"/>
      <point x="185" y="650"/>
    </contour>
  </outline>
</glyph>
<glyph name="less" format="1">
  <advance width="1437"/>
  <unicode hex="003C"/>
  <outline>
    <contour>
      <point x="1321" y="-15" type="line"/>
      <point x="1321" y="234" type="line"/>
      <point x="1321" y="234"/>
      <point x="487" y="557"/>
      <point x="427" y="580" type="curve"/>
      <point x="493" y="601"/>
      <point x="1321" y="916"/>
      <point x="1321" y="916" type="curve"/>
      <point x="1321" y="1163" type="line"/>
      <point x="101" y="678" type="line"/>
      <point x="101" y="471" type="line"/>
    </contour>
  </outline>
</glyph>
<glyph name="equal" format="1">
  <advance width="1452"/>
  <unicode hex="003D"/>
  <outline>
    <contour>
      <point x="148" y="228" type="line"/>
      <point x="1307" y="228" type="line"/>
      <point x="1307" y="458" type="line"/>
      <point x="148" y="458" type="line"/>
    </contour>
    <contour>
      <point x="148" y="693" type="line"/>
      <point x="1307" y="693" type="line"/>
      <point x="1307" y="923" type="line"/>
      <point x="148" y="923" type="line"/>
    </contour>
  </outline>
</glyph>
<glyph name="greater" format="1">
  <advance width="1437"/>
  <unicode hex="003E"/>
  <outline>
    <contour>
      <point x="119" y="-15" type="line"/>
      <point x="1339" y="470" type="line"/>
      <point x="1339" y="678" type="line"/>
      <point x="119" y="1163" type="line"/>
      <point x="119" y="916" type="line"/>
      <point x="989" y="574" type="line"/>
      <point x="119" y="234" type="line"/>
    </contour>
  </outline>
</glyph>
<glyph name="question" format="1">
  <advance width="1088"/>
  <unicode hex="003F"/>
  <outline>
    <contour>
      <point x="423" y="518" type="curve"/>
      <point x="478" y="568"/>
      <point x="700" y="628"/>
      <point x="700" y="704" type="curve" smooth="yes"/>
      <point x="839" y="860"/>
      <point x="978" y="1009"/>
      <point x="895" y="1221" type="curve" smooth="yes"/>
      <point x="843" y="1385"/>
      <point x="654" y="1478"/>
      <point x="413" y="1468" type="curve"/>
      <point x="280" y="1468"/>
      <point x="175" y="1346"/>
      <point x="130" y="1321" type="curve"/>
      <point x="147" y="1333"/>
      <point x="197" y="1150"/>
      <point x="235" y="1150" type="curve" smooth="yes"/>
      <point x="312" y="1187"/>
      <point x="446" y="1223"/>
      <point x="539" y="1185" type="curve" smooth="yes"/>
      <point x="612" y="1145"/>
      <point x="637" y="1037"/>
      <point x="596" y="879" type="curve"/>
      <point x="596" y="773"/>
      <point x="530" y="646"/>
    </contour>
    <contour>
      <point x="467" y="-19" type="curve" smooth="yes"/>
      <point x="580" y="-19"/>
      <point x="671" y="71"/>
      <point x="671" y="184" type="curve" smooth="yes"/>
      <point x="671" y="296"/>
      <point x="580" y="388"/>
      <point x="467" y="388" type="curve" smooth="yes"/>
      <point x="354" y="388"/>
      <point x="264" y="296"/>
      <point x="264" y="184" type="curve" smooth="yes"/>
      <point x="264" y="71"/>
      <point x="354" y="-19"/>
    </contour>
  </outline>
</glyph>
<glyph name="A" format="1">
  <advance width="1397"/>
  <unicode hex="0041"/>
  <outline>
    <contour>
      <point x="2" y="0" type="line"/>
      <point x="349" y="0" type="line"/>
      <point x="446" y="305" type="line"/>
      <point x="948" y="305" type="line"/>
      <point x="1046" y="0" type="line"/>
      <point x="1395" y="0" type="line"/>
      <point x="879" y="1481" type="line"/>
      <point x="515" y="1481" type="line"/>
    </contour>
    <contour>
      <point x="523" y="550" type="line"/>
      <point x="695" y="1117" type="line"/>
      <point x="871" y="550" type="line"/>
    </contour>
  </outline>
</glyph>
<glyph name="B" format="1">
  <advance width="1392"/>
  <unicode hex="0042"/>
  <outline>
    <contour>
      <point x="146" y="0" type="line"/>
      <point x="734" y="0" type="line" smooth="yes"/>
      <point x="1070" y="0"/>
      <point x="1333" y="123"/>
      <point x="1333" y="445" type="curve" smooth="yes"/>
      <point x="1333" y="627"/>
      <point x="1210" y="757"/>
      <point x="1031" y="792" type="curve"/>
      <point x="1031" y="798" type="line"/>
      <point x="1164" y="849"/>
      <point x="1233" y="961"/>
      <point x="1233" y="1083" type="curve" smooth="yes"/>
      <point x="1233" y="1411"/>
      <point x="980" y="1481"/>
      <point x="565" y="1481" type="curve" smooth="yes"/>
      <point x="146" y="1481" type="line"/>
    </contour>
    <contour>
      <point x="488" y="244" type="line"/>
      <point x="488" y="646" type="line"/>
      <point x="620" y="646" type="line" smooth="yes"/>
      <point x="806" y="646"/>
      <point x="978" y="619"/>
      <point x="978" y="453" type="curve" smooth="yes"/>
      <point x="978" y="328"/>
      <point x="889" y="244"/>
      <point x="715" y="244" type="curve" smooth="yes"/>
    </contour>
    <contour>
      <point x="488" y="876" type="line"/>
      <point x="488" y="1237" type="line"/>
      <point x="604" y="1237" type="line" smooth="yes"/>
      <point x="813" y="1237"/>
      <point x="911" y="1197"/>
      <point x="911" y="1061" type="curve" smooth="yes"/>
      <point x="911" y="918"/>
      <point x="815" y="876"/>
      <point x="595" y="876" type="curve" smooth="yes"/>
    </contour>
  </outline>
</glyph>
<glyph name="C" format="1">
  <advance width="1355"/>
  <unicode hex="0043"/>
  <outline>
    <contour>
      <point x="825" y="-25" type="curve" smooth="yes"/>
      <point x="1019" y="-25"/>
      <point x="1153" y="22"/>
      <point x="1289" y="103" type="curve"/>
      <point x="1230" y="348" type="line"/>
      <point x="1230" y="348"/>
      <point x="1062" y="231"/>
      <point x="863" y="231" type="curve" smooth="yes"/>
      <point x="580" y="231"/>
      <point x="448" y="397"/>
      <point x="448" y="738" type="curve" smooth="yes"/>
      <point x="448" y="1082"/>
      <point x="591" y="1244"/>
      <point x="859" y="1244" type="curve" smooth="yes"/>
      <point x="1077" y="1244"/>
      <point x="1219" y="1128"/>
      <point x="1219" y="1128" type="curve"/>
      <point x="1288" y="1387" type="line"/>
      <point x="1160" y="1458"/>
      <point x="1021" y="1502"/>
      <point x="829" y="1502" type="curve" smooth="yes"/>
      <point x="383" y="1502"/>
      <point x="99" y="1232"/>
      <point x="99" y="741" type="curve" smooth="yes"/>
      <point x="99" y="254"/>
      <point x="332" y="-25"/>
    </contour>
  </outline>
</glyph>
<glyph name="D" format="1">
  <advance width="1514"/>
  <unicode hex="0044"/>
  <outline>
    <contour>
      <point x="489" y="249" type="line"/>
      <point x="489" y="1232" type="line"/>
      <point x="680" y="1232" type="line" smooth="yes"/>
      <point x="927" y="1232"/>
      <point x="1067" y="1069"/>
      <point x="1067" y="738" type="curve" smooth="yes"/>
      <point x="1067" y="384"/>
      <point x="942" y="249"/>
      <point x="632" y="249" type="curve" smooth="yes"/>
    </contour>
    <contour>
      <point x="146" y="0" type="line"/>
      <point x="594" y="0" type="line" smooth="yes"/>
      <point x="1101" y="0"/>
      <point x="1415" y="192"/>
      <point x="1415" y="739" type="curve" smooth="yes"/>
      <point x="1415" y="1281"/>
      <point x="1112" y="1481"/>
      <point x="596" y="1481" type="curve" smooth="yes"/>
      <point x="146" y="1481" type="line"/>
    </contour>
  </outline>
</glyph>
<glyph name="E" format="1">
  <advance width="1203"/>
  <unicode hex="0045"/>
  <outline>
    <contour>
      <point x="146" y="0" type="line"/>
      <point x="1126" y="0" type="line"/>
      <point x="1126" y="249" type="line"/>
      <point x="488" y="249" type="line"/>
      <point x="488" y="653" type="line"/>
      <point x="1042" y="653" type="line"/>
      <point x="1042" y="900" type="line"/>
      <point x="488" y="900" type="line"/>
      <point x="488" y="1233" type="line"/>
      <point x="1127" y="1233" type="line"/>
      <point x="1127" y="1481" type="line"/>
      <point x="146" y="1481" type="line"/>
    </contour>
  </outline>
</glyph>
<glyph name="F" format="1">
  <advance width="1167"/>
  <unicode hex="0046"/>
  <outline>
    <contour>
      <point x="146" y="0" type="line"/>
      <point x="488" y="0" type="line"/>
      <point x="488" y="636" type="line"/>
      <point x="1079" y="636" type="line"/>
      <point x="1079" y="883" type="line"/>
      <point x="488" y="883" type="line"/>
      <point x="488" y="1232" type="line"/>
      <point x="1137" y="1232" type="line"/>
      <point x="1137" y="1481" type="line"/>
      <point x="146" y="1481" type="line"/>
    </contour>
  </outline>
</glyph>
<glyph name="G" format="1">
  <advance width="1473"/>
  <unicode hex="0047"/>
  <outline>
    <contour>
      <point x="824" y="-22" type="curve" smooth="yes"/>
      <point x="1051" y="-22"/>
      <point x="1278" y="51"/>
      <point x="1367" y="132" type="curve"/>
      <point x="1367" y="831" type="line"/>
      <point x="754" y="831" type="line"/>
      <point x="754" y="595" type="line"/>
      <point x="1100" y="595" type="line"/>
      <point x="1100" y="266" type="line"/>
      <point x="1099" y="267"/>
      <point x="990" y="232"/>
      <point x="851" y="232" type="curve" smooth="yes"/>
      <point x="570" y="232"/>
      <point x="448" y="407"/>
      <point x="448" y="746" type="curve" smooth="yes"/>
      <point x="448" y="1077"/>
      <point x="578" y="1243"/>
      <point x="880" y="1243" type="curve" smooth="yes"/>
      <point x="1098" y="1243"/>
      <point x="1274" y="1115"/>
      <point x="1274" y="1112" type="curve"/>
      <point x="1341" y="1360" type="line"/>
      <point x="1218" y="1435"/>
      <point x="1088" y="1504"/>
      <point x="831" y="1504" type="curve" smooth="yes"/>
      <point x="354" y="1504"/>
      <point x="99" y="1235"/>
      <point x="99" y="741" type="curve" smooth="yes"/>
      <point x="99" y="269"/>
      <point x="335" y="-22"/>
    </contour>
  </outline>
</glyph>
<glyph name="H" format="1">
  <advance width="1512"/>
  <unicode hex="0048"/>
  <outline>
    <contour>
      <point x="146" y="0" type="line"/>
      <point x="489" y="0" type="line"/>
      <point x="489" y="646" type="line"/>
      <point x="1023" y="646" type="line"/>
      <point x="1023" y="0" type="line"/>
      <point x="1367" y="0" type="line"/>
      <point x="1367" y="1481" type="line"/>
      <point x="1023" y="1481" type="line"/>
      <point x="1023" y="894" type="line"/>
      <point x="489" y="894" type="line"/>
      <point x="489" y="1481" type="line"/>
      <point x="146" y="1481" type="line"/>
    </contour>
  </outline>
</glyph>
<glyph name="I" format="1">
  <advance width="901"/>
  <unicode hex="0049"/>
  <outline>
    <contour>
      <point x="64" y="0" type="line"/>
      <point x="833" y="0" type="line"/>
      <point x="833" y="249" type="line"/>
      <point x="620" y="249" type="line"/>
      <point x="620" y="1232" type="line"/>
      <point x="833" y="1232" type="line"/>
      <point x="833" y="1481" type="line"/>
      <point x="64" y="1481" type="line"/>
      <point x="64" y="1232" type="line"/>
      <point x="277" y="1232" type="line"/>
      <point x="277" y="249" type="line"/>
      <point x="64" y="249" type="line"/>
    </contour>
  </outline>
</glyph>
<glyph name="J" format="1">
  <advance width="1061"/>
  <unicode hex="004A"/>
  <outline>
    <contour>
      <point x="385" y="-20" type="curve" smooth="yes"/>
      <point x="711" y="-20"/>
      <point x="915" y="153"/>
      <point x="915" y="443" type="curve" smooth="yes"/>
      <point x="915" y="1481" type="line"/>
      <point x="290" y="1481" type="line"/>
      <point x="290" y="1210" type="line"/>
      <point x="572" y="1210" type="line"/>
      <point x="572" y="566" type="line" smooth="yes"/>
      <point x="572" y="335"/>
      <point x="483" y="245"/>
      <point x="333" y="245" type="curve" smooth="yes"/>
      <point x="259" y="245"/>
      <point x="172" y="268"/>
      <point x="84" y="306" type="curve"/>
      <point x="24" y="64" type="line"/>
      <point x="91" y="24"/>
      <point x="207" y="-20"/>
    </contour>
  </outline>
</glyph>
<glyph name="K" format="1">
  <advance width="1435"/>
  <unicode hex="004B"/>
  <outline>
    <contour>
      <point x="146" y="0" type="line"/>
      <point x="488" y="0" type="line"/>
      <point x="488" y="478" type="line"/>
      <point x="642" y="657" type="line"/>
      <point x="717" y="535" type="line"/>
      <point x="814" y="369"/>
      <point x="1009" y="46"/>
      <point x="1036" y="0" type="curve"/>
      <point x="1441" y="0" type="line"/>
      <point x="913" y="833" type="line"/>
      <point x="1412" y="1481" type="line"/>
      <point x="1012" y="1481" type="line" smooth="yes"/>
      <point x="932" y="1368"/>
      <point x="749" y="1143"/>
      <point x="656" y="1012" type="curve"/>
      <point x="489" y="799" type="line"/>
      <point x="488" y="799" type="line"/>
      <point x="488" y="1481" type="line"/>
      <point x="146" y="1481" type="line"/>
    </contour>
  </outline>
</glyph>
<glyph name="M" format="1">
  <advance width="1780"/>
  <unicode hex="004D"/>
  <outline>
    <contour>
      <point x="146" y="0" type="line"/>
      <point x="477" y="0" type="line"/>
      <point x="477" y="748" type="line"/>
      <point x="477" y="782"/>
      <point x="473" y="929"/>
      <point x="473" y="929" type="curve"/>
      <point x="759" y="324" type="line"/>
      <point x="1010" y="324" type="line"/>
      <point x="1298" y="929" type="line"/>
      <point x="1298" y="929"/>
      <point x="1293" y="782"/>
      <point x="1293" y="748" type="curve"/>
      <point x="1293" y="0" type="line"/>
      <point x="1635" y="0" type="line"/>
      <point x="1635" y="1481" type="line"/>
      <point x="1271" y="1481" type="line"/>
      <point x="893" y="687" type="line"/>
      <point x="516" y="1481" type="line"/>
      <point x="146" y="1481" type="line"/>
    </contour>
  </outline>
</glyph>
<glyph name="O" format="1">
  <advance width="1577"/>
  <unicode hex="004F"/>
  <outline>
    <contour>
      <point x="791" y="233" type="curve" smooth="yes"/>
      <point x="527" y="233"/>
      <point x="448" y="441"/>
      <point x="448" y="740" type="curve" smooth="yes"/>
      <point x="448" y="1041"/>
      <point x="527" y="1247"/>
      <point x="791" y="1247" type="curve" smooth="yes"/>
      <point x="1050" y="1247"/>
      <point x="1130" y="1037"/>
      <point x="1130" y="740" type="curve" smooth="yes"/>
      <point x="1130" y="452"/>
      <point x="1052" y="233"/>
    </contour>
    <contour>
      <point x="790" y="-24" type="curve" smooth="yes"/>
      <point x="1249" y="-24"/>
      <point x="1478" y="259"/>
      <point x="1478" y="740" type="curve" smooth="yes"/>
      <point x="1478" y="1226"/>
      <point x="1248" y="1504"/>
      <point x="790" y="1504" type="curve" smooth="yes"/>
      <point x="332" y="1504"/>
      <point x="99" y="1225"/>
      <point x="99" y="740" type="curve" smooth="yes"/>
      <point x="99" y="258"/>
      <point x="330" y="-24"/>
    </contour>
  </outline>
</glyph>
<glyph name="P" format="1">
  <advance width="1328"/>
  <unicode hex="0050"/>
  <outline>
    <contour>
      <point x="146" y="0" type="line"/>
      <point x="489" y="0" type="line"/>
      <point x="489" y="533" type="line"/>
      <point x="701" y="533" type="line" smooth="yes"/>
      <point x="1063" y="533"/>
      <point x="1285" y="715"/>
      <point x="1285" y="1012" type="curve" smooth="yes"/>
      <point x="1285" y="1353"/>
      <point x="1035" y="1481"/>
      <point x="724" y="1481" type="curve" smooth="yes"/>
      <point x="146" y="1481" type="line"/>
    </contour>
    <contour>
      <point x="489" y="777" type="line"/>
      <point x="489" y="1237" type="line"/>
      <point x="619" y="1237" type="line" smooth="yes"/>
      <point x="789" y="1237"/>
      <point x="937" y="1197"/>
      <point x="937" y="1010" type="curve" smooth="yes"/>
      <point x="937" y="796"/>
      <point x="764" y="777"/>
      <point x="562" y="777" type="curve" smooth="yes"/>
    </contour>
  </outline>
</glyph>
<glyph name="Q" format="1">
  <advance width="1577"/>
  <unicode hex="0051"/>
  <outline>
    <contour>
      <point x="1030" y="-412" type="line"/>
      <point x="1215" y="-330" type="line"/>
      <point x="881" y="433" type="line"/>
      <point x="882" y="433"/>
      <point x="651" y="433"/>
      <point x="651" y="433" type="curve"/>
    </contour>
    <component base="O"/>
  </outline>
</glyph>
<glyph name="R" format="1">
  <advance width="1415"/>
  <unicode hex="0052"/>
  <outline>
    <contour>
      <point x="146" y="0" type="line"/>
      <point x="488" y="0" type="line"/>
      <point x="488" y="595" type="line"/>
      <point x="687" y="595" type="line"/>
      <point x="1021" y="0" type="line"/>
      <point x="1374" y="0" type="line"/>
      <point x="1374" y="72" type="line"/>
      <point x="1013" y="648" type="line"/>
      <point x="1226" y="727"/>
      <point x="1312" y="849"/>
      <point x="1312" y="1064" type="curve" smooth="yes"/>
      <point x="1312" y="1474"/>
      <point x="905" y="1481"/>
      <point x="641" y="1481" type="curve" smooth="yes"/>
      <point x="146" y="1481" type="line"/>
    </contour>
    <contour>
      <point x="488" y="839" type="line"/>
      <point x="488" y="1237" type="line"/>
      <point x="658" y="1237" type="line" smooth="yes"/>
      <point x="890" y="1237"/>
      <point x="967" y="1182"/>
      <point x="967" y="1040" type="curve" smooth="yes"/>
      <point x="967" y="884"/>
      <point x="868" y="839"/>
      <point x="666" y="839" type="curve" smooth="yes"/>
    </contour>
  </outline>
</glyph>
<glyph name="T" format="1">
  <advance width="1191"/>
  <unicode hex="0054"/>
  <outline>
    <contour>
      <point x="424" y="0" type="line"/>
      <point x="769" y="0" type="line"/>
      <point x="769" y="1232" type="line"/>
      <point x="1192" y="1232" type="line"/>
      <point x="1192" y="1481" type="line"/>
      <point x="0" y="1481" type="line"/>
      <point x="0" y="1232" type="line"/>
      <point x="424" y="1232" type="line"/>
    </contour>
  </outline>
</glyph>
<glyph name="U" format="1">
  <advance width="1478"/>
  <unicode hex="0055"/>
  <outline>
    <contour>
      <point x="738" y="-24" type="curve" smooth="yes"/>
      <point x="1127" y="-24"/>
      <point x="1350" y="175"/>
      <point x="1350" y="497" type="curve" smooth="yes"/>
      <point x="1350" y="1481" type="line"/>
      <point x="1007" y="1481" type="line"/>
      <point x="1007" y="518" type="line" smooth="yes"/>
      <point x="1007" y="317"/>
      <point x="906" y="235"/>
      <point x="739" y="235" type="curve" smooth="yes"/>
      <point x="566" y="235"/>
      <point x="472" y="320"/>
      <point x="472" y="516" type="curve" smooth="yes"/>
      <point x="472" y="1481" type="line"/>
      <point x="128" y="1481" type="line"/>
      <point x="128" y="496" type="line" smooth="yes"/>
      <point x="128" y="168"/>
      <point x="365" y="-24"/>
    </contour>
  </outline>
</glyph>
<glyph name="V" format="1">
  <advance width="1346"/>
  <unicode hex="0056"/>
  <outline>
    <contour>
      <point x="503" y="0" type="line"/>
      <point x="847" y="0" type="line"/>
      <point x="1368" y="1481" type="line"/>
      <point x="1016" y="1481" type="line"/>
      <point x="960" y="1300"/>
      <point x="793" y="812"/>
      <point x="738" y="630" type="curve"/>
      <point x="724" y="582"/>
      <point x="692" y="485"/>
      <point x="679" y="436" type="curve"/>
      <point x="677" y="436" type="line"/>
      <point x="677" y="436"/>
      <point x="627" y="598"/>
      <point x="616" y="629" type="curve"/>
      <point x="559" y="809"/>
      <point x="394" y="1301"/>
      <point x="337" y="1481" type="curve"/>
      <point x="-21" y="1481" type="line"/>
    </contour>
  </outline>
</glyph>
<glyph name="W" format="1">
  <advance width="2038"/>
  <unicode hex="0057"/>
  <outline>
    <contour>
      <point x="393" y="0" type="line"/>
      <point x="745" y="0" type="line"/>
      <point x="1020" y="981" type="line"/>
      <point x="1057" y="862"/>
      <point x="1233" y="199"/>
      <point x="1288" y="0" type="curve"/>
      <point x="1644" y="0" type="line"/>
      <point x="2034" y="1481" type="line"/>
      <point x="1684" y="1481" type="line"/>
      <point x="1646" y="1307"/>
      <point x="1549" y="891"/>
      <point x="1512" y="717" type="curve"/>
      <point x="1501" y="668"/>
      <point x="1470" y="533"/>
      <point x="1460" y="485" type="curve"/>
      <point x="1448" y="520"/>
      <point x="1406" y="683"/>
      <point x="1395" y="727" type="curve"/>
      <point x="1194" y="1481" type="line"/>
      <point x="855" y="1481" type="line"/>
      <point x="811" y="1319"/>
      <point x="698" y="921"/>
      <point x="655" y="759" type="curve"/>
      <point x="580" y="483" type="line"/>
      <point x="577" y="483" type="line"/>
      <point x="525" y="731" type="line"/>
      <point x="490" y="903"/>
      <point x="397" y="1310"/>
      <point x="362" y="1481" type="curve"/>
      <point x="5" y="1481" type="line"/>
    </contour>
  </outline>
</glyph>
<glyph name="X" format="1">
  <advance width="1375"/>
  <unicode hex="0058"/>
  <outline>
    <contour>
      <point x="-22" y="0" type="line"/>
      <point x="363" y="0" type="line"/>
      <point x="363" y="0"/>
      <point x="582" y="338"/>
      <point x="587" y="346" type="curve"/>
      <point x="609" y="382"/>
      <point x="660" y="458"/>
      <point x="682" y="494" type="curve"/>
      <point x="703" y="460"/>
      <point x="755" y="382"/>
      <point x="777" y="347" type="curve"/>
      <point x="995" y="0" type="line"/>
      <point x="1389" y="0" type="line"/>
      <point x="891" y="755" type="line"/>
      <point x="1378" y="1481" type="line"/>
      <point x="991" y="1481" type="line"/>
      <point x="780" y="1155" type="line"/>
      <point x="755" y="1114"/>
      <point x="712" y="1049"/>
      <point x="688" y="1011" type="curve"/>
      <point x="665" y="1051"/>
      <point x="621" y="1118"/>
      <point x="598" y="1158" type="curve"/>
      <point x="562" y="1221"/>
      <point x="430" y="1418"/>
      <point x="393" y="1481" type="curve"/>
      <point x="4" y="1481" type="line"/>
      <point x="482" y="750" type="line"/>
    </contour>
  </outline>
</glyph>
<glyph name="Y" format="1">
  <advance width="1360"/>
  <unicode hex="0059"/>
  <outline>
    <contour>
      <point x="512" y="0" type="line"/>
      <point x="852" y="0" type="line"/>
      <point x="852" y="626" type="line"/>
      <point x="1382" y="1481" type="line"/>
      <point x="1021" y="1481" type="line"/>
      <point x="690" y="924" type="line"/>
      <point x="350" y="1481" type="line"/>
      <point x="-22" y="1481" type="line"/>
      <point x="512" y="614" type="line"/>
    </contour>
  </outline>
</glyph>
<glyph name="Z" format="1">
  <advance width="1204"/>
  <unicode hex="005A"/>
  <outline>
    <contour>
      <point x="67" y="0" type="line"/>
      <point x="1166" y="0" type="line"/>
      <point x="1166" y="249" type="line"/>
      <point x="485" y="249" type="line"/>
      <point x="1131" y="1236" type="line"/>
      <point x="1131" y="1481" type="line"/>
      <point x="102" y="1481" type="line"/>
      <point x="102" y="1232" type="line"/>
      <point x="716" y="1232" type="line"/>
      <point x="67" y="246" type="line"/>
    </contour>
  </outline>
</glyph>
<glyph name="bracketleft" format="1">
  <advance width="792"/>
  <unicode hex="005B"/>
  <outline>
    <contour>
      <point x="128" y="-306" type="line"/>
      <point x="699" y="-306" type="line"/>
      <point x="699" y="-94" type="line"/>
      <point x="418" y="-94" type="line"/>
      <point x="418" y="1299" type="line"/>
      <point x="699" y="1299" type="line"/>
      <point x="699" y="1512" type="line"/>
      <point x="128" y="1512" type="line"/>
    </contour>
  </outline>
</glyph>
<glyph name="bracketright" format="1">
  <advance width="792"/>
  <unicode hex="005D"/>
  <outline>
    <contour>
      <point x="94" y="-306" type="line"/>
      <point x="666" y="-306" type="line"/>
      <point x="666" y="1512" type="line"/>
      <point x="94" y="1512" type="line"/>
      <point x="94" y="1299" type="line"/>
      <point x="377" y="1299" type="line"/>
      <point x="377" y="-94" type="line"/>
      <point x="94" y="-94" type="line"/>
    </contour>
  </outline>
</glyph>
<glyph name="asciicircum" format="1">
  <advance width="1448"/>
  <unicode hex="005E"/>
  <outline>
    <contour>
      <point x="117" y="601" type="line"/>
      <point x="406" y="601" type="line"/>
      <point x="711" y="1143" type="line"/>
      <point x="1043" y="603" type="line"/>
      <point x="1333" y="603" type="line"/>
      <point x="828" y="1395" type="line"/>
      <point x="596" y="1395" type="line"/>
    </contour>
  </outline>
</glyph>
<glyph name="underscore" format="1">
  <advance width="1041"/>
  <unicode hex="005F"/>
  <outline>
    <contour>
      <point x="-8" y="-254" type="line"/>
      <point x="1050" y="-254" type="line"/>
      <point x="1050" y="-93" type="line"/>
      <point x="-8" y="-93" type="line"/>
    </contour>
  </outline>
</glyph>
<glyph name="a" format="1">
  <advance width="1122"/>
  <unicode hex="0061"/>
  <outline>
    <contour>
      <point x="388" y="-19" type="curve" smooth="yes"/>
      <point x="551" y="-19"/>
      <point x="664" y="78"/>
      <point x="716" y="210" type="curve"/>
      <point x="716" y="0" type="line"/>
      <point x="1025" y="0" type="line"/>
      <point x="1025" y="693" type="line" smooth="yes"/>
      <point x="1025" y="935"/>
      <point x="882" y="1059"/>
      <point x="523" y="1059" type="curve" smooth="yes"/>
      <point x="366" y="1059"/>
      <point x="182" y="1010"/>
      <point x="132" y="978" type="curve"/>
      <point x="193" y="771" type="line"/>
      <point x="272" y="804"/>
      <point x="406" y="834"/>
      <point x="508" y="834" type="curve" smooth="yes"/>
      <point x="676" y="834"/>
      <point x="717" y="779"/>
      <point x="717" y="649" type="curve"/>
      <point x="360" y="649"/>
      <point x="60" y="609"/>
      <point x="60" y="295" type="curve"/>
      <point x="60" y="115"/>
      <point x="192" y="-19"/>
    </contour>
    <contour>
      <point x="494" y="186" type="curve" smooth="yes"/>
      <point x="419" y="186"/>
      <point x="366" y="240"/>
      <point x="366" y="321" type="curve" smooth="yes"/>
      <point x="366" y="454"/>
      <point x="495" y="484"/>
      <point x="717" y="498" type="curve"/>
      <point x="717" y="260"/>
      <point x="610" y="186"/>
    </contour>
  </outline>
</glyph>
<glyph name="b" format="1">
  <advance width="1226"/>
  <unicode hex="0062"/>
  <outline>
    <contour>
      <point x="710" y="-22" type="curve" smooth="yes"/>
      <point x="989" y="-22"/>
      <point x="1147" y="207"/>
      <point x="1147" y="530" type="curve" smooth="yes"/>
      <point x="1147" y="854"/>
      <point x="1019" y="1058"/>
      <point x="747" y="1058" type="curve" smooth="yes"/>
      <point x="624" y="1058"/>
      <point x="513" y="1013"/>
      <point x="427" y="933" type="curve"/>
      <point x="427" y="1435" type="line"/>
      <point x="118" y="1435" type="line"/>
      <point x="118" y="0" type="line"/>
      <point x="427" y="0" type="line"/>
      <point x="427" y="110" type="line"/>
      <point x="490" y="36"/>
      <point x="590" y="-22"/>
    </contour>
    <contour>
      <point x="594" y="215" type="curve" smooth="yes"/>
      <point x="543" y="215"/>
      <point x="445" y="236"/>
      <point x="427" y="247" type="curve"/>
      <point x="427" y="764" type="line"/>
      <point x="438" y="773"/>
      <point x="526" y="822"/>
      <point x="605" y="822" type="curve" smooth="yes"/>
      <point x="747" y="822"/>
      <point x="832" y="729"/>
      <point x="832" y="530" type="curve" smooth="yes"/>
      <point x="832" y="339"/>
      <point x="763" y="215"/>
    </contour>
  </outline>
</glyph>
<glyph name="c" format="1">
  <advance width="1059"/>
  <unicode hex="0063"/>
  <outline>
    <contour>
      <point x="639" y="-24" type="curve" smooth="yes"/>
      <point x="782" y="-24"/>
      <point x="903" y="18"/>
      <point x="1010" y="77" type="curve"/>
      <point x="962" y="293" type="line"/>
      <point x="902" y="253"/>
      <point x="807" y="204"/>
      <point x="676" y="204" type="curve" smooth="yes"/>
      <point x="516" y="204"/>
      <point x="395" y="291"/>
      <point x="395" y="514" type="curve" smooth="yes"/>
      <point x="395" y="741"/>
      <point x="523" y="835"/>
      <point x="680" y="835" type="curve" smooth="yes"/>
      <point x="772" y="835"/>
      <point x="893" y="793"/>
      <point x="963" y="739" type="curve"/>
      <point x="1010" y="957" type="line"/>
      <point x="876" y="1032"/>
      <point x="755" y="1058"/>
      <point x="631" y="1058" type="curve" smooth="yes"/>
      <point x="355" y="1058"/>
      <point x="81" y="913"/>
      <point x="81" y="515" type="curve" smooth="yes"/>
      <point x="81" y="140"/>
      <point x="333" y="-24"/>
    </contour>
  </outline>
</glyph>
<glyph name="d" format="1">
  <advance width="1219"/>
  <unicode hex="0064"/>
  <outline>
    <contour>
      <point x="518" y="-21" type="curve"/>
      <point x="639" y="-21"/>
      <point x="736" y="33"/>
      <point x="795" y="121" type="curve"/>
      <point x="795" y="0" type="line"/>
      <point x="1104" y="0" type="line"/>
      <point x="1104" y="1435" type="line"/>
      <point x="795" y="1435" type="line"/>
      <point x="795" y="961" type="line"/>
      <point x="724" y="1015"/>
      <point x="626" y="1059"/>
      <point x="516" y="1059" type="curve" smooth="yes"/>
      <point x="224" y="1059"/>
      <point x="81" y="859"/>
      <point x="81" y="525" type="curve" smooth="yes"/>
      <point x="81" y="207"/>
      <point x="241" y="-21"/>
    </contour>
    <contour>
      <point x="635" y="205" type="curve" smooth="yes"/>
      <point x="476" y="205"/>
      <point x="394" y="333"/>
      <point x="394" y="512" type="curve" smooth="yes"/>
      <point x="394" y="698"/>
      <point x="455" y="831"/>
      <point x="600" y="831" type="curve" smooth="yes"/>
      <point x="670" y="831"/>
      <point x="740" y="812"/>
      <point x="795" y="776" type="curve"/>
      <point x="795" y="236" type="line"/>
      <point x="746" y="211"/>
      <point x="673" y="205"/>
    </contour>
  </outline>
</glyph>
<glyph name="e" format="1">
  <advance width="1162"/>
  <unicode hex="0065"/>
  <outline>
    <contour>
      <point x="665" y="-24" type="curve" smooth="yes"/>
      <point x="883" y="-24"/>
      <point x="1007" y="41"/>
      <point x="1077" y="93" type="curve"/>
      <point x="1031" y="289" type="line"/>
      <point x="987" y="289" type="line"/>
      <point x="915" y="239"/>
      <point x="804" y="198"/>
      <point x="694" y="198" type="curve" smooth="yes"/>
      <point x="524" y="198"/>
      <point x="402" y="267"/>
      <point x="390" y="446" type="curve"/>
      <point x="1092" y="446" type="line"/>
      <point x="1092" y="561" type="line" smooth="yes"/>
      <point x="1092" y="861"/>
      <point x="921" y="1058"/>
      <point x="613" y="1058" type="curve" smooth="yes"/>
      <point x="294" y="1058"/>
      <point x="80" y="869"/>
      <point x="80" y="513" type="curve" smooth="yes"/>
      <point x="80" y="145"/>
      <point x="321" y="-24"/>
    </contour>
    <contour>
      <point x="388" y="634" type="line"/>
      <point x="400" y="763"/>
      <point x="479" y="856"/>
      <point x="605" y="856" type="curve"/>
      <point x="748" y="856"/>
      <point x="816" y="765"/>
      <point x="821" y="634" type="curve"/>
    </contour>
  </outline>
</glyph>
<glyph name="f" format="1">
  <advance width="736"/>
  <unicode hex="0066"/>
  <outline>
    <contour>
      <point x="172" y="0" type="line"/>
      <point x="481" y="0" type="line"/>
      <point x="481" y="835" type="line"/>
      <point x="729" y="835" type="line"/>
      <point x="729" y="1036" type="line"/>
      <point x="472" y="1036" type="line"/>
      <point x="472" y="1190"/>
      <point x="522" y="1225"/>
      <point x="617" y="1225" type="curve" smooth="yes"/>
      <point x="660" y="1225"/>
      <point x="714" y="1218"/>
      <point x="751" y="1214" type="curve"/>
      <point x="751" y="1430" type="line"/>
      <point x="696" y="1436"/>
      <point x="631" y="1443"/>
      <point x="557" y="1443" type="curve" smooth="yes"/>
      <point x="290" y="1443"/>
      <point x="172" y="1327"/>
      <point x="172" y="1076" type="curve" smooth="yes"/>
      <point x="172" y="1036" type="line"/>
      <point x="26" y="1036" type="line"/>
      <point x="26" y="835" type="line"/>
      <point x="172" y="835" type="line"/>
    </contour>
  </outline>
</glyph>
<glyph name="g" format="1">
  <advance width="1183"/>
  <unicode hex="0067"/>
  <outline>
    <contour>
      <point x="556" y="-399" type="curve" smooth="yes"/>
      <point x="851" y="-399"/>
      <point x="1081" y="-276"/>
      <point x="1081" y="96" type="curve" smooth="yes"/>
      <point x="1081" y="1036" type="line"/>
      <point x="764" y="1036" type="line"/>
      <point x="766" y="924" type="line"/>
      <point x="701" y="1021"/>
      <point x="602" y="1059"/>
      <point x="494" y="1059" type="curve" smooth="yes"/>
      <point x="223" y="1059"/>
      <point x="81" y="855"/>
      <point x="81" y="539" type="curve" smooth="yes"/>
      <point x="81" y="180"/>
      <point x="253" y="0"/>
      <point x="538" y="0" type="curve" smooth="yes"/>
      <point x="632" y="0"/>
      <point x="724" y="41"/>
      <point x="774" y="108" type="curve"/>
      <point x="774" y="106"/>
      <point x="774" y="81"/>
      <point x="774" y="79" type="curve" smooth="yes"/>
      <point x="772" y="-95"/>
      <point x="714" y="-168"/>
      <point x="524" y="-168" type="curve" smooth="yes"/>
      <point x="399" y="-168"/>
      <point x="267" y="-125"/>
      <point x="216" y="-102" type="curve"/>
      <point x="165" y="-317" type="line"/>
      <point x="260" y="-361"/>
      <point x="405" y="-399"/>
    </contour>
    <contour>
      <point x="606" y="228" type="curve" smooth="yes"/>
      <point x="464" y="228"/>
      <point x="394" y="313"/>
      <point x="394" y="543" type="curve" smooth="yes"/>
      <point x="394" y="734"/>
      <point x="485" y="832"/>
      <point x="613" y="832" type="curve" smooth="yes"/>
      <point x="669" y="832"/>
      <point x="723" y="817"/>
      <point x="766" y="799" type="curve"/>
      <point x="766" y="287" type="line"/>
      <point x="723" y="251"/>
      <point x="664" y="228"/>
    </contour>
  </outline>
</glyph>
<glyph name="h" format="1">
  <advance width="1186"/>
  <unicode hex="0068"/>
  <outline>
    <contour>
      <point x="119" y="0" type="line"/>
      <point x="428" y="0" type="line"/>
      <point x="428" y="662" type="line" smooth="yes"/>
      <point x="428" y="736"/>
      <point x="518" y="809"/>
      <point x="611" y="809" type="curve" smooth="yes"/>
      <point x="730" y="809"/>
      <point x="776" y="746"/>
      <point x="776" y="583" type="curve" smooth="yes"/>
      <point x="776" y="0" type="line"/>
      <point x="1085" y="0" type="line"/>
      <point x="1085" y="684" type="line" smooth="yes"/>
      <point x="1085" y="930"/>
      <point x="943" y="1059"/>
      <point x="752" y="1059" type="curve" smooth="yes"/>
      <point x="561" y="1059"/>
      <point x="446" y="907"/>
      <point x="428" y="870" type="curve"/>
      <point x="428" y="1448" type="line"/>
      <point x="119" y="1448" type="line"/>
    </contour>
  </outline>
</glyph>
<glyph name="i" format="1">
  <advance width="603"/>
  <unicode hex="0069"/>
  <outline>
    <contour>
      <point x="147" y="0" type="line"/>
      <point x="456" y="0" type="line"/>
      <point x="456" y="1035" type="line"/>
      <point x="147" y="1035" type="line"/>
    </contour>
    <contour>
      <point x="301" y="1169" type="curve" smooth="yes"/>
      <point x="423" y="1169"/>
      <point x="484" y="1256"/>
      <point x="484" y="1342" type="curve" smooth="yes"/>
      <point x="484" y="1430"/>
      <point x="422" y="1518"/>
      <point x="301" y="1518" type="curve" smooth="yes"/>
      <point x="179" y="1518"/>
      <point x="119" y="1431"/>
      <point x="119" y="1343" type="curve" smooth="yes"/>
      <point x="119" y="1256"/>
      <point x="180" y="1169"/>
    </contour>
  </outline>
</glyph>
<glyph name="k" format="1">
  <advance width="1160"/>
  <unicode hex="006B"/>
  <outline>
    <contour>
      <point x="118" y="0" type="line"/>
      <point x="427" y="0" type="line"/>
      <point x="427" y="366" type="line"/>
      <point x="526" y="467" type="line"/>
      <point x="832" y="0" type="line"/>
      <point x="1144" y="0" type="line"/>
      <point x="1144" y="73" type="line"/>
      <point x="777" y="610" type="line"/>
      <point x="1127" y="991" type="line"/>
      <point x="1127" y="1035" type="line"/>
      <point x="799" y="1035" type="line"/>
      <point x="427" y="624" type="line"/>
      <point x="427" y="1435" type="line"/>
      <point x="118" y="1435" type="line"/>
    </contour>
  </outline>
</glyph>
<glyph name="l" format="1">
  <advance width="634"/>
  <unicode hex="006C"/>
  <outline>
    <contour>
      <point x="505" y="-2" type="curve" smooth="yes"/>
      <point x="590" y="-2" type="line"/>
      <point x="590" y="212" type="line"/>
      <point x="473" y="212"/>
      <point x="428" y="242"/>
      <point x="428" y="340" type="curve" smooth="yes"/>
      <point x="428" y="1434" type="line"/>
      <point x="120" y="1434" type="line"/>
      <point x="120" y="354" type="line" smooth="yes"/>
      <point x="120" y="180"/>
      <point x="112" y="-2"/>
    </contour>
  </outline>
</glyph>
<glyph name="m" format="1">
  <advance width="1784"/>
  <unicode hex="006D"/>
  <outline>
    <contour>
      <point x="118" y="0" type="line"/>
      <point x="427" y="0" type="line"/>
      <point x="427" y="703" type="line"/>
      <point x="427" y="764"/>
      <point x="513" y="806"/>
      <point x="582" y="806" type="curve" smooth="yes"/>
      <point x="697" y="806"/>
      <point x="748" y="750"/>
      <point x="748" y="584" type="curve" smooth="yes"/>
      <point x="748" y="0" type="line"/>
      <point x="1057" y="0" type="line"/>
      <point x="1057" y="703" type="line" smooth="yes"/>
      <point x="1057" y="742"/>
      <point x="1137" y="806"/>
      <point x="1211" y="806" type="curve" smooth="yes"/>
      <point x="1334" y="806"/>
      <point x="1378" y="745"/>
      <point x="1378" y="559" type="curve" smooth="yes"/>
      <point x="1378" y="0" type="line"/>
      <point x="1687" y="0" type="line"/>
      <point x="1687" y="680" type="line" smooth="yes"/>
      <point x="1688" y="945"/>
      <point x="1544" y="1059"/>
      <point x="1364" y="1059" type="curve" smooth="yes"/>
      <point x="1242" y="1059"/>
      <point x="1106" y="1000"/>
      <point x="1027" y="865" type="curve"/>
      <point x="975" y="1000"/>
      <point x="871" y="1059"/>
      <point x="756" y="1059" type="curve" smooth="yes"/>
      <point x="628" y="1059"/>
      <point x="499" y="1002"/>
      <point x="427" y="861" type="curve"/>
      <point x="427" y="1035" type="line"/>
      <point x="118" y="1035" type="line"/>
    </contour>
  </outline>
</glyph>
<glyph name="n" format="1">
  <advance width="1184"/>
  <unicode hex="006E"/>
  <outline>
    <contour>
      <point x="119" y="0" type="line"/>
      <point x="428" y="0" type="line"/>
      <point x="428" y="684" type="line" smooth="yes"/>
      <point x="428" y="729"/>
      <point x="508" y="806"/>
      <point x="608" y="806" type="curve" smooth="yes"/>
      <point x="723" y="806"/>
      <point x="777" y="751"/>
      <point x="777" y="581" type="curve" smooth="yes"/>
      <point x="777" y="0" type="line"/>
      <point x="1086" y="0" type="line"/>
      <point x="1086" y="696" type="line" smooth="yes"/>
      <point x="1086" y="942"/>
      <point x="922" y="1059"/>
      <point x="763" y="1059" type="curve" smooth="yes"/>
      <point x="618" y="1059"/>
      <point x="480" y="973"/>
      <point x="428" y="855" type="curve"/>
      <point x="428" y="1035" type="line"/>
      <point x="119" y="1035" type="line"/>
    </contour>
  </outline>
</glyph>
<glyph name="o" format="1">
  <advance width="1218"/>
  <unicode hex="006F"/>
  <outline>
    <contour>
      <point x="611" y="201" type="curve" smooth="yes"/>
      <point x="483" y="201"/>
      <point x="394" y="266"/>
      <point x="394" y="517" type="curve" smooth="yes"/>
      <point x="394" y="771"/>
      <point x="488" y="835"/>
      <point x="607" y="835" type="curve" smooth="yes"/>
      <point x="734" y="835"/>
      <point x="824" y="766"/>
      <point x="824" y="516" type="curve" smooth="yes"/>
      <point x="824" y="292"/>
      <point x="752" y="201"/>
    </contour>
    <contour>
      <point x="607" y="-25" type="curve" smooth="yes"/>
      <point x="940" y="-25"/>
      <point x="1138" y="161"/>
      <point x="1138" y="518" type="curve" smooth="yes"/>
      <point x="1138" y="876"/>
      <point x="940" y="1059"/>
      <point x="607" y="1059" type="curve" smooth="yes"/>
      <point x="278" y="1059"/>
      <point x="80" y="878"/>
      <point x="80" y="519" type="curve" smooth="yes"/>
      <point x="80" y="160"/>
      <point x="276" y="-25"/>
    </contour>
  </outline>
</glyph>
<glyph name="p" format="1">
  <advance width="1198"/>
  <unicode hex="0070"/>
  <outline>
    <contour>
      <point x="118" y="-391" type="line"/>
      <point x="427" y="-391" type="line"/>
      <point x="427" y="58" type="line"/>
      <point x="496" y="9"/>
      <point x="581" y="-23"/>
      <point x="688" y="-23" type="curve" smooth="yes"/>
      <point x="962" y="-23"/>
      <point x="1119" y="192"/>
      <point x="1119" y="522" type="curve" smooth="yes"/>
      <point x="1119" y="841"/>
      <point x="1014" y="1058"/>
      <point x="735" y="1058" type="curve" smooth="yes"/>
      <point x="608" y="1058"/>
      <point x="479" y="990"/>
      <point x="427" y="898" type="curve"/>
      <point x="427" y="1035" type="line"/>
      <point x="118" y="1035" type="line"/>
    </contour>
    <contour>
      <point x="585" y="204" type="curve" smooth="yes"/>
      <point x="523" y="204"/>
      <point x="463" y="215"/>
      <point x="427" y="238" type="curve"/>
      <point x="427" y="762" type="line"/>
      <point x="469" y="803"/>
      <point x="537" y="821"/>
      <point x="596" y="821" type="curve" smooth="yes"/>
      <point x="752" y="821"/>
      <point x="805" y="707"/>
      <point x="805" y="520" type="curve" smooth="yes"/>
      <point x="805" y="337"/>
      <point x="754" y="204"/>
    </contour>
  </outline>
</glyph>
<glyph name="q" format="1">
  <advance width="1201"/>
  <unicode hex="0071"/>
  <outline>
    <contour>
      <point x="775" y="-391" type="line"/>
      <point x="1084" y="-391" type="line"/>
      <point x="1084" y="1035" type="line"/>
      <point x="775" y="1035" type="line"/>
      <point x="775" y="925" type="line"/>
      <point x="729" y="1004"/>
      <point x="627" y="1058"/>
      <point x="519" y="1058" type="curve" smooth="yes"/>
      <point x="205" y="1058"/>
      <point x="81" y="843"/>
      <point x="81" y="517" type="curve" smooth="yes"/>
      <point x="81" y="195"/>
      <point x="242" y="-22"/>
      <point x="511" y="-22" type="curve" smooth="yes"/>
      <point x="619" y="-22"/>
      <point x="699" y="12"/>
      <point x="775" y="88" type="curve"/>
    </contour>
    <contour>
      <point x="625" y="205" type="curve" smooth="yes"/>
      <point x="466" y="205"/>
      <point x="395" y="317"/>
      <point x="395" y="515" type="curve" smooth="yes"/>
      <point x="395" y="703"/>
      <point x="447" y="820"/>
      <point x="602" y="820" type="curve" smooth="yes"/>
      <point x="668" y="820"/>
      <point x="731" y="806"/>
      <point x="775" y="781" type="curve"/>
      <point x="775" y="257" type="line"/>
      <point x="751" y="226"/>
      <point x="690" y="205"/>
    </contour>
  </outline>
</glyph>
<glyph name="s" format="1">
  <advance width="1032"/>
  <unicode hex="0073"/>
  <outline>
    <contour>
      <point x="485" y="-24" type="curve"/>
      <point x="795" y="-24"/>
      <point x="982" y="115"/>
      <point x="982" y="317" type="curve" smooth="yes"/>
      <point x="982" y="514"/>
      <point x="877" y="586"/>
      <point x="619" y="641" type="curve" smooth="yes"/>
      <point x="430" y="682"/>
      <point x="393" y="690"/>
      <point x="393" y="748" type="curve" smooth="yes"/>
      <point x="393" y="805"/>
      <point x="458" y="842"/>
      <point x="557" y="842" type="curve" smooth="yes"/>
      <point x="678" y="842"/>
      <point x="788" y="799"/>
      <point x="854" y="762" type="curve"/>
      <point x="886" y="762" type="line"/>
      <point x="918" y="983" type="line"/>
      <point x="836" y="1025"/>
      <point x="703" y="1059"/>
      <point x="543" y="1059" type="curve" smooth="yes"/>
      <point x="254" y="1059"/>
      <point x="81" y="920"/>
      <point x="81" y="726" type="curve" smooth="yes"/>
      <point x="81" y="531"/>
      <point x="204" y="462"/>
      <point x="422" y="415" type="curve" smooth="yes"/>
      <point x="603" y="376"/>
      <point x="671" y="360"/>
      <point x="671" y="291" type="curve" smooth="yes"/>
      <point x="671" y="225"/>
      <point x="580" y="196"/>
      <point x="486" y="196" type="curve" smooth="yes"/>
      <point x="335" y="196"/>
      <point x="229" y="247"/>
      <point x="165" y="289" type="curve"/>
      <point x="118" y="289" type="line"/>
      <point x="83" y="71" type="line"/>
      <point x="185" y="13"/>
      <point x="338" y="-24"/>
    </contour>
  </outline>
</glyph>
<glyph name="t" format="1">
  <advance width="819"/>
  <unicode hex="0074"/>
  <outline>
    <contour>
      <point x="515" y="-13" type="curve" smooth="yes"/>
      <point x="625" y="-13"/>
      <point x="683" y="-8"/>
      <point x="749" y="5" type="curve"/>
      <point x="749" y="224" type="line"/>
      <point x="723" y="219"/>
      <point x="673" y="211"/>
      <point x="622" y="211" type="curve" smooth="yes"/>
      <point x="538" y="211"/>
      <point x="469" y="240"/>
      <point x="469" y="353" type="curve" smooth="yes"/>
      <point x="469" y="830" type="line"/>
      <point x="749" y="830" type="line"/>
      <point x="749" y="1035" type="line"/>
      <point x="469" y="1035" type="line"/>
      <point x="469" y="1360" type="line"/>
      <point x="160" y="1291" type="line"/>
      <point x="160" y="1035" type="line"/>
      <point x="36" y="1035" type="line"/>
      <point x="36" y="830" type="line"/>
      <point x="160" y="830" type="line"/>
      <point x="160" y="328" type="line" smooth="yes"/>
      <point x="160" y="90"/>
      <point x="266" y="-13"/>
    </contour>
  </outline>
</glyph>
<glyph name="u" format="1">
  <advance width="1184"/>
  <unicode hex="0075"/>
  <outline>
    <contour>
      <point x="438" y="-22" type="curve" smooth="yes"/>
      <point x="568" y="-22"/>
      <point x="694" y="36"/>
      <point x="759" y="157" type="curve"/>
      <point x="759" y="0" type="line"/>
      <point x="1068" y="0" type="line"/>
      <point x="1068" y="1035" type="line"/>
      <point x="759" y="1035" type="line"/>
      <point x="759" y="325" type="line"/>
      <point x="759" y="274"/>
      <point x="668" y="228"/>
      <point x="588" y="228" type="curve" smooth="yes"/>
      <point x="472" y="228"/>
      <point x="415" y="291"/>
      <point x="415" y="462" type="curve" smooth="yes"/>
      <point x="415" y="1035" type="line"/>
      <point x="99" y="1035" type="line"/>
      <point x="99" y="342" type="line" smooth="yes"/>
      <point x="99" y="96"/>
      <point x="270" y="-22"/>
    </contour>
  </outline>
</glyph>
<glyph name="v" format="1">
  <advance width="1062"/>
  <unicode hex="0076"/>
  <outline>
    <contour>
      <point x="368" y="0" type="line"/>
      <point x="695" y="0" type="line"/>
      <point x="1080" y="1035" type="line"/>
      <point x="758" y="1035" type="line"/>
      <point x="721" y="911"/>
      <point x="620" y="603"/>
      <point x="583" y="479" type="curve"/>
      <point x="573" y="448"/>
      <point x="548" y="371"/>
      <point x="538" y="339" type="curve"/>
      <point x="536" y="339" type="line"/>
      <point x="491" y="479" type="line"/>
      <point x="453" y="604"/>
      <point x="347" y="909"/>
      <point x="307" y="1035" type="curve"/>
      <point x="-17" y="1035" type="line"/>
    </contour>
  </outline>
</glyph>
<glyph name="w" format="1">
  <advance width="1690"/>
  <unicode hex="0077"/>
  <outline>
    <contour>
      <point x="322" y="0" type="line"/>
      <point x="654" y="0" type="line"/>
      <point x="844" y="709" type="line"/>
      <point x="846" y="709" type="line"/>
      <point x="1033" y="0" type="line"/>
      <point x="1367" y="0" type="line"/>
      <point x="1686" y="1035" type="line"/>
      <point x="1359" y="1035" type="line"/>
      <point x="1219" y="436" type="line"/>
      <point x="1211" y="410"/>
      <point x="1196" y="344"/>
      <point x="1191" y="319" type="curve"/>
      <point x="1186" y="333"/>
      <point x="1165" y="407"/>
      <point x="1155" y="442" type="curve"/>
      <point x="1146" y="477"/>
      <point x="995" y="1035"/>
      <point x="995" y="1035" type="curve"/>
      <point x="711" y="1035" type="line"/>
      <point x="711" y="1035"/>
      <point x="572" y="559"/>
      <point x="533" y="415" type="curve"/>
      <point x="504" y="311" type="line"/>
      <point x="503" y="311" type="line"/>
      <point x="479" y="415" type="line"/>
      <point x="470" y="456"/>
      <point x="335" y="1035"/>
      <point x="335" y="1035" type="curve"/>
      <point x="5" y="1035" type="line"/>
    </contour>
  </outline>
</glyph>
<glyph name="x" format="1">
  <advance width="1131"/>
  <unicode hex="0078"/>
  <outline>
    <contour>
      <point x="-6" y="0" type="line"/>
      <point x="352" y="0" type="line"/>
      <point x="383" y="45"/>
      <point x="479" y="177"/>
      <point x="510" y="223" type="curve"/>
      <point x="567" y="307" type="line"/>
      <point x="625" y="224" type="line" smooth="yes"/>
      <point x="655" y="179"/>
      <point x="749" y="47"/>
      <point x="780" y="0" type="curve"/>
      <point x="1138" y="0" type="line"/>
      <point x="749" y="524" type="line"/>
      <point x="1132" y="1035" type="line"/>
      <point x="773" y="1035" type="line"/>
      <point x="744" y="989"/>
      <point x="652" y="862"/>
      <point x="623" y="817" type="curve"/>
      <point x="567" y="733" type="line"/>
      <point x="554" y="755"/>
      <point x="519" y="802"/>
      <point x="507" y="824" type="curve"/>
      <point x="361" y="1035" type="line"/>
      <point x="1" y="1035" type="line"/>
      <point x="385" y="520" type="line"/>
    </contour>
  </outline>
</glyph>
<glyph name="y" format="1">
  <advance width="1087"/>
  <unicode hex="0079"/>
  <outline>
    <contour>
      <point x="226" y="-392" type="curve"/>
      <point x="547" y="-392" type="line"/>
      <point x="548" y="-393"/>
      <point x="634" y="-235"/>
      <point x="681" y="-103" type="curve" smooth="yes"/>
      <point x="1106" y="1035" type="line"/>
      <point x="780" y="1035" type="line"/>
      <point x="561" y="353" type="line"/>
      <point x="324" y="1035" type="line"/>
      <point x="0" y="1035" type="line"/>
      <point x="399" y="7" type="line"/>
      <point x="344" y="-149"/>
      <point x="286" y="-275"/>
    </contour>
  </outline>
</glyph>
<glyph name="braceleft" format="1">
  <advance width="1030"/>
  <unicode hex="007B"/>
  <outline>
    <contour>
      <point x="848" y="-308" type="curve" smooth="yes"/>
      <point x="861" y="-308"/>
      <point x="963" y="-307"/>
      <point x="963" y="-307" type="curve"/>
      <point x="963" y="-105" type="line"/>
      <point x="944" y="-105"/>
      <point x="884" y="-105"/>
      <point x="868" y="-105" type="curve" smooth="yes"/>
      <point x="689" y="-105"/>
      <point x="646" y="-74"/>
      <point x="646" y="161" type="curve" smooth="yes"/>
      <point x="646" y="239" type="line" smooth="yes"/>
      <point x="646" y="447"/>
      <point x="522" y="550"/>
      <point x="382" y="594" type="curve"/>
      <point x="382" y="610" type="line"/>
      <point x="553" y="665"/>
      <point x="646" y="776"/>
      <point x="646" y="1017" type="curve" smooth="yes"/>
      <point x="646" y="1076" type="line" smooth="yes"/>
      <point x="646" y="1275"/>
      <point x="707" y="1309"/>
      <point x="877" y="1309" type="curve" smooth="yes"/>
      <point x="963" y="1309" type="line"/>
      <point x="963" y="1512" type="line"/>
      <point x="822" y="1512" type="line" smooth="yes"/>
      <point x="547" y="1512"/>
      <point x="351" y="1471"/>
      <point x="351" y="1188" type="curve" smooth="yes"/>
      <point x="351" y="1011" type="line" smooth="yes"/>
      <point x="351" y="785"/>
      <point x="261" y="713"/>
      <point x="19" y="713" type="curve"/>
      <point x="19" y="490" type="line"/>
      <point x="261" y="490"/>
      <point x="351" y="410"/>
      <point x="351" y="193" type="curve" smooth="yes"/>
      <point x="351" y="57" type="line" smooth="yes"/>
      <point x="351" y="-262"/>
      <point x="535" y="-308"/>
    </contour>
  </outline>
</glyph>
<glyph name="braceright" format="1">
  <advance width="1030"/>
  <unicode hex="007D"/>
  <outline>
    <contour>
      <point x="21" y="-308" type="line"/>
      <point x="161" y="-308" type="line" smooth="yes"/>
      <point x="436" y="-308"/>
      <point x="632" y="-268"/>
      <point x="632" y="15" type="curve" smooth="yes"/>
      <point x="632" y="193" type="line" smooth="yes"/>
      <point x="632" y="419"/>
      <point x="722" y="490"/>
      <point x="964" y="490" type="curve"/>
      <point x="964" y="712" type="line"/>
      <point x="723" y="712"/>
      <point x="632" y="794"/>
      <point x="632" y="1011" type="curve" smooth="yes"/>
      <point x="632" y="1146" type="line" smooth="yes"/>
      <point x="632" y="1466"/>
      <point x="448" y="1512"/>
      <point x="135" y="1512" type="curve" smooth="yes"/>
      <point x="123" y="1512"/>
      <point x="21" y="1511"/>
      <point x="21" y="1511" type="curve"/>
      <point x="21" y="1309" type="line"/>
      <point x="116" y="1309" type="line" smooth="yes"/>
      <point x="294" y="1309"/>
      <point x="337" y="1278"/>
      <point x="337" y="1044" type="curve" smooth="yes"/>
      <point x="337" y="963" type="line" smooth="yes"/>
      <point x="337" y="756"/>
      <point x="462" y="655"/>
      <point x="603" y="610" type="curve"/>
      <point x="603" y="594" type="line"/>
      <point x="432" y="539"/>
      <point x="337" y="429"/>
      <point x="337" y="188" type="curve" smooth="yes"/>
      <point x="337" y="129" type="line" smooth="yes"/>
      <point x="337" y="-70"/>
      <point x="277" y="-106"/>
      <point x="107" y="-106" type="curve" smooth="yes"/>
      <point x="21" y="-106" type="line"/>
    </contour>
  </outline>
</glyph>
<glyph name="asciitilde" format="1">
  <advance width="1456"/>
  <unicode hex="007E"/>
  <outline>
    <contour>
      <point x="315" y="307" type="line" smooth="yes"/>
      <point x="321" y="476"/>
      <point x="373" y="578"/>
      <point x="454" y="578" type="curve"/>
      <point x="552" y="578"/>
      <point x="736" y="310"/>
      <point x="1004" y="310" type="curve"/>
      <point x="1232" y="310"/>
      <point x="1346" y="476"/>
      <point x="1361" y="801" type="curve" smooth="yes"/>
      <point x="1144" y="847" type="line" smooth="yes"/>
      <point x="1138" y="735"/>
      <point x="1135" y="571"/>
      <point x="1001" y="571" type="curve"/>
      <point x="836" y="571"/>
      <point x="665" y="845"/>
      <point x="461" y="845" type="curve"/>
      <point x="247" y="845"/>
      <point x="115" y="683"/>
      <point x="100" y="351" type="curve" smooth="yes"/>
    </contour>
  </outline>
</glyph>
<glyph name="cent" format="1">
  <advance width="1147"/>
  <unicode hex="00A2"/>
  <outline>
    <contour>
      <point x="552" y="-292" type="line"/>
      <point x="698" y="-292" type="line"/>
      <point x="698" y="1311" type="line"/>
      <point x="552" y="1311" type="line"/>
    </contour>
    <component base="c" xOffset="-16"/>
  </outline>
</glyph>
<glyph name="sterling" format="1">
  <advance width="1233"/>
  <unicode hex="00A3"/>
  <outline>
    <contour>
      <point x="310" y="-10" type="curve" smooth="yes"/>
      <point x="392" y="-2"/>
      <point x="481" y="9"/>
      <point x="560" y="17" type="curve"/>
      <point x="676" y="17"/>
      <point x="814" y="56"/>
      <point x="925" y="56" type="curve"/>
      <point x="973" y="51"/>
      <point x="1015" y="49"/>
      <point x="1064" y="71" type="curve" smooth="yes"/>
      <point x="1039" y="71"/>
      <point x="969" y="267"/>
      <point x="944" y="267" type="curve"/>
      <point x="894" y="283"/>
      <point x="835" y="331"/>
      <point x="770" y="360" type="curve" smooth="yes"/>
      <point x="706" y="364"/>
      <point x="631" y="381"/>
      <point x="568" y="385" type="curve"/>
      <point x="596" y="444"/>
      <point x="738" y="519"/>
      <point x="738" y="589" type="curve"/>
      <point x="738" y="597"/>
      <point x="738" y="656"/>
      <point x="737" y="664" type="curve"/>
      <point x="863" y="664" type="line"/>
      <point x="859" y="683"/>
      <point x="845" y="866"/>
      <point x="845" y="887" type="curve" smooth="yes"/>
      <point x="845" y="926"/>
      <point x="605" y="959"/>
      <point x="657" y="959" type="curve" smooth="yes"/>
      <point x="674" y="1004"/>
      <point x="698" y="1055"/>
      <point x="717" y="1080" type="curve"/>
      <point x="717" y="1156"/>
      <point x="800" y="1207"/>
      <point x="866" y="1207" type="curve"/>
      <point x="936" y="1207"/>
      <point x="1007" y="1222"/>
      <point x="1047" y="1176" type="curve"/>
      <point x="1031" y="1193"/>
      <point x="1035" y="1206"/>
      <point x="992" y="1206" type="curve" smooth="yes"/>
      <point x="907" y="1206"/>
      <point x="840" y="1387"/>
      <point x="840" y="1322" type="curve" smooth="yes"/>
      <point x="800" y="1334"/>
      <point x="701" y="1337"/>
      <point x="602" y="1303" type="curve"/>
      <point x="364" y="1303"/>
      <point x="196" y="1168"/>
      <point x="196" y="963" type="curve"/>
      <point x="196" y="916"/>
      <point x="202" y="812"/>
      <point x="213" y="758" type="curve"/>
      <point x="175" y="758" type="line"/>
      <point x="175" y="754"/>
      <point x="177" y="590"/>
      <point x="177" y="585" type="curve" smooth="yes"/>
      <point x="177" y="547"/>
      <point x="283" y="508"/>
      <point x="273" y="482" type="curve"/>
      <point x="266" y="444"/>
      <point x="250" y="409"/>
      <point x="231" y="377" type="curve"/>
      <point x="231" y="330"/>
      <point x="225" y="239"/>
      <point x="208" y="196" type="curve"/>
      <point x="201" y="194"/>
      <point x="184" y="193"/>
      <point x="159" y="190" type="curve" smooth="yes"/>
      <point x="205" y="190"/>
      <point x="265" y="-10"/>
    </contour>
  </outline>
</glyph>
<glyph name="section" format="1">
  <advance width="1173"/>
  <unicode hex="00A7"/>
  <outline>
    <contour>
      <point x="532" y="-132" type="curve"/>
      <point x="841" y="-132"/>
      <point x="1030" y="7"/>
      <point x="1030" y="209" type="curve" smooth="yes"/>
      <point x="1030" y="323"/>
      <point x="991" y="399"/>
      <point x="910" y="452" type="curve"/>
      <point x="989" y="510"/>
      <point x="1030" y="591"/>
      <point x="1030" y="688" type="curve" smooth="yes"/>
      <point x="1030" y="884"/>
      <point x="912" y="973"/>
      <point x="672" y="1014" type="curve" smooth="yes"/>
      <point x="483" y="1046"/>
      <point x="441" y="1061"/>
      <point x="441" y="1119" type="curve" smooth="yes"/>
      <point x="441" y="1176"/>
      <point x="506" y="1213"/>
      <point x="605" y="1213" type="curve" smooth="yes"/>
      <point x="746" y="1213"/>
      <point x="870" y="1154"/>
      <point x="932" y="1114" type="curve"/>
      <point x="965" y="1351" type="line"/>
      <point x="871" y="1398"/>
      <point x="751" y="1430"/>
      <point x="591" y="1430" type="curve" smooth="yes"/>
      <point x="302" y="1430"/>
      <point x="129" y="1291"/>
      <point x="129" y="1098" type="curve" smooth="yes"/>
      <point x="129" y="986"/>
      <point x="177" y="910"/>
      <point x="257" y="859" type="curve"/>
      <point x="172" y="803"/>
      <point x="129" y="719"/>
      <point x="129" y="619" type="curve" smooth="yes"/>
      <point x="129" y="424"/>
      <point x="275" y="338"/>
      <point x="484" y="298" type="curve" smooth="yes"/>
      <point x="609" y="274"/>
      <point x="719" y="261"/>
      <point x="719" y="184" type="curve" smooth="yes"/>
      <point x="719" y="118"/>
      <point x="628" y="88"/>
      <point x="534" y="88" type="curve" smooth="yes"/>
      <point x="342" y="88"/>
      <point x="223" y="172"/>
      <point x="171" y="212" type="curve"/>
      <point x="131" y="-38" type="line"/>
      <point x="233" y="-96"/>
      <point x="384" y="-132"/>
    </contour>
    <contour>
      <point x="695" y="530" type="line"/>
      <point x="690" y="530"/>
      <point x="677" y="533"/>
      <point x="672" y="534" type="curve" smooth="yes"/>
      <point x="483" y="567"/>
      <point x="399" y="585"/>
      <point x="385" y="648" type="curve" smooth="yes"/>
      <point x="371" y="701"/>
      <point x="417" y="763"/>
      <point x="454" y="783" type="curve"/>
      <point x="464" y="781"/>
      <point x="474" y="780"/>
      <point x="484" y="778" type="curve" smooth="yes"/>
      <point x="609" y="754"/>
      <point x="767" y="742"/>
      <point x="769" y="654" type="curve" smooth="yes"/>
      <point x="770" y="597"/>
      <point x="733" y="554"/>
      <point x="697" y="531" type="curve"/>
    </contour>
  </outline>
</glyph>
<glyph name="dieresis" format="1">
  <advance width="799"/>
  <unicode hex="00A8"/>
  <outline>
    <contour>
      <point x="99" y="1185" type="line"/>
      <point x="329" y="1185" type="line"/>
      <point x="329" y="1439" type="line"/>
      <point x="99" y="1439" type="line"/>
    </contour>
    <contour>
      <point x="468" y="1185" type="line"/>
      <point x="698" y="1185" type="line"/>
      <point x="698" y="1439" type="line"/>
      <point x="468" y="1439" type="line"/>
    </contour>
  </outline>
</glyph>
<glyph name="logicalnot" format="1">
  <advance width="1459"/>
  <unicode hex="00AC"/>
  <outline>
    <contour>
      <point x="1063" y="99" type="line"/>
      <point x="1323" y="99" type="line"/>
      <point x="1323" y="779" type="line"/>
      <point x="134" y="779" type="line"/>
      <point x="134" y="544" type="line"/>
      <point x="1063" y="544" type="line"/>
    </contour>
  </outline>
</glyph>
<glyph name="uni00AD" format="1">
  <advance width="778"/>
  <unicode hex="00AD"/>
  <outline>
    <contour>
      <point x="99" y="436" type="line"/>
      <point x="680" y="436" type="line"/>
      <point x="680" y="634" type="line"/>
      <point x="99" y="634" type="line"/>
    </contour>
  </outline>
</glyph>
<glyph name="registered" format="1">
  <advance width="1817"/>
  <unicode hex="00AE"/>
  <outline>
    <contour>
      <point x="597" y="246" type="line"/>
      <point x="752" y="246" type="line"/>
      <point x="752" y="615" type="line"/>
      <point x="926" y="615" type="line"/>
      <point x="1150" y="246" type="line"/>
      <point x="1303" y="246" type="line"/>
      <point x="1303" y="289" type="line"/>
      <point x="1076" y="637" type="line"/>
      <point x="1203" y="673"/>
      <point x="1255" y="740"/>
      <point x="1255" y="873" type="curve" smooth="yes"/>
      <point x="1255" y="1093"/>
      <point x="1060" y="1124"/>
      <point x="888" y="1124" type="curve" smooth="yes"/>
      <point x="597" y="1124" type="line"/>
    </contour>
    <contour>
      <point x="752" y="736" type="line"/>
      <point x="752" y="1006" type="line"/>
      <point x="897" y="1006" type="line" smooth="yes"/>
      <point x="1055" y="1006"/>
      <point x="1107" y="956"/>
      <point x="1107" y="872" type="curve" smooth="yes"/>
      <point x="1107" y="783"/>
      <point x="1058" y="736"/>
      <point x="938" y="736" type="curve" smooth="yes"/>
    </contour>
    <contour>
      <point x="910" y="36" type="curve" smooth="yes"/>
      <point x="550" y="36"/>
      <point x="259" y="298"/>
      <point x="259" y="669" type="curve" smooth="yes"/>
      <point x="259" y="1026"/>
      <point x="534" y="1303"/>
      <point x="910" y="1303" type="curve" smooth="yes"/>
      <point x="1274" y="1303"/>
      <point x="1568" y="1042"/>
      <point x="1568" y="672" type="curve" smooth="yes"/>
      <point x="1568" y="306"/>
      <point x="1286" y="36"/>
    </contour>
    <contour>
      <point x="910" y="-117" type="curve" smooth="yes"/>
      <point x="1374" y="-117"/>
      <point x="1738" y="227"/>
      <point x="1738" y="669" type="curve" smooth="yes"/>
      <point x="1738" y="1117"/>
      <point x="1362" y="1455"/>
      <point x="910" y="1455" type="curve" smooth="yes"/>
      <point x="446" y="1455"/>
      <point x="81" y="1112"/>
      <point x="81" y="669" type="curve" smooth="yes"/>
      <point x="81" y="203"/>
      <point x="464" y="-117"/>
    </contour>
  </outline>
</glyph>
<glyph name="degree" format="1">
  <advance width="913"/>
  <unicode hex="00B0"/>
  <outline>
    <contour>
      <point x="458" y="870" type="curve" smooth="yes"/>
      <point x="343" y="870"/>
      <point x="249" y="958"/>
      <point x="249" y="1073" type="curve" smooth="yes"/>
      <point x="249" y="1183"/>
      <point x="342" y="1277"/>
      <point x="458" y="1277" type="curve" smooth="yes"/>
      <point x="573" y="1277"/>
      <point x="666" y="1183"/>
      <point x="666" y="1073" type="curve" smooth="yes"/>
      <point x="666" y="961"/>
      <point x="574" y="870"/>
    </contour>
    <contour>
      <point x="458" y="763" type="curve" smooth="yes"/>
      <point x="639" y="763"/>
      <point x="785" y="899"/>
      <point x="785" y="1073" type="curve" smooth="yes"/>
      <point x="785" y="1246"/>
      <point x="639" y="1382"/>
      <point x="458" y="1382" type="curve" smooth="yes"/>
      <point x="277" y="1382"/>
      <point x="130" y="1247"/>
      <point x="130" y="1073" type="curve" smooth="yes"/>
      <point x="130" y="901"/>
      <point x="276" y="763"/>
    </contour>
  </outline>
</glyph>
<glyph name="plusminus" format="1">
  <advance width="1398"/>
  <unicode hex="00B1"/>
  <outline>
    <contour>
      <point x="555" y="280" type="line"/>
      <point x="738" y="280" type="line"/>
      <point x="738" y="616" type="line"/>
      <point x="1136" y="616" type="line"/>
      <point x="1136" y="791" type="line"/>
      <point x="738" y="791" type="line"/>
      <point x="738" y="1129" type="line"/>
      <point x="555" y="1129" type="line"/>
      <point x="555" y="791" type="line"/>
      <point x="159" y="791" type="line"/>
      <point x="159" y="616" type="line"/>
      <point x="555" y="616" type="line"/>
    </contour>
    <contour>
      <point x="157" y="0" type="line"/>
      <point x="1135" y="0" type="line"/>
      <point x="1135" y="176" type="line"/>
      <point x="157" y="176" type="line"/>
    </contour>
  </outline>
</glyph>
<glyph name="uni00B2" format="1">
  <advance width="1523"/>
  <unicode hex="00B2"/>
  <outline>
    <contour>
      <point x="256" y="0" type="line"/>
      <point x="383" y="0" type="line"/>
      <point x="1215" y="1430" type="line"/>
      <point x="1088" y="1430" type="line"/>
    </contour>
    <component base="two.superior" xOffset="829" yOffset="-553"/>
    <component base="one.superior" xOffset="-80"/>
  </outline>
</glyph>
<glyph name="acute" format="1">
  <advance width="748"/>
  <unicode hex="00B4"/>
  <outline>
    <contour>
      <point x="153" y="1160" type="line"/>
      <point x="364" y="1160" type="line"/>
      <point x="661" y="1506" type="line"/>
      <point x="349" y="1506" type="line"/>
    </contour>
  </outline>
</glyph>
<glyph name="onequarter" format="1">
  <advance width="1513"/>
  <unicode hex="00BC"/>
  <outline>
    <contour>
      <point x="1187" y="0" type="line"/>
      <point x="1366" y="0" type="line"/>
      <point x="1366" y="121" type="line"/>
      <point x="1447" y="121" type="line"/>
      <point x="1447" y="241" type="line"/>
      <point x="1366" y="241" type="line"/>
      <point x="1366" y="819" type="line"/>
      <point x="1121" y="819" type="line"/>
      <point x="821" y="241" type="line"/>
      <point x="821" y="121" type="line"/>
      <point x="1187" y="121" type="line"/>
    </contour>
    <contour>
      <point x="321" y="0" type="line"/>
      <point x="448" y="0" type="line"/>
      <point x="1262" y="1430" type="line"/>
      <point x="1133" y="1430" type="line"/>
    </contour>
    <contour>
      <point x="971" y="241" type="line"/>
      <point x="1187" y="669" type="line"/>
      <point x="1187" y="241" type="line"/>
    </contour>
    <component base="one.superior" xOffset="-26"/>
  </outline>
</glyph>
<glyph name="onehalf" format="1">
  <advance width="1595"/>
  <unicode hex="00BD"/>
  <outline>
    <contour>
      <point x="314" y="0" type="line"/>
      <point x="441" y="0" type="line"/>
      <point x="1255" y="1430" type="line"/>
      <point x="1128" y="1430" type="line"/>
    </contour>
    <component base="two.superior" xOffset="879" yOffset="-554"/>
    <component base="one.superior" xOffset="-23"/>
  </outline>
</glyph>
<glyph name="threequarters" format="1">
  <advance width="1528"/>
  <unicode hex="00BE"/>
  <outline>
    <contour>
      <point x="1202" y="0" type="line"/>
      <point x="1381" y="0" type="line"/>
      <point x="1381" y="121" type="line"/>
      <point x="1462" y="121" type="line"/>
      <point x="1462" y="241" type="line"/>
      <point x="1381" y="241" type="line"/>
      <point x="1381" y="819" type="line"/>
      <point x="1136" y="819" type="line"/>
      <point x="837" y="241" type="line"/>
      <point x="837" y="121" type="line"/>
      <point x="1202" y="121" type="line"/>
    </contour>
    <contour>
      <point x="336" y="0" type="line"/>
      <point x="463" y="0" type="line"/>
      <point x="1277" y="1430" type="line"/>
      <point x="1149" y="1430" type="line"/>
    </contour>
    <contour>
      <point x="987" y="241" type="line"/>
      <point x="1202" y="669" type="line"/>
      <point x="1202" y="241" type="line"/>
    </contour>
    <component base="three.superior" xOffset="-2"/>
  </outline>
</glyph>
<glyph name="Eth" format="1">
  <advance width="1216"/>
  <unicode hex="00D0"/>
  <outline>
    <contour>
      <point x="20" y="675" type="line"/>
      <point x="683" y="675" type="line"/>
      <point x="683" y="852" type="line"/>
      <point x="20" y="852" type="line"/>
    </contour>
    <component base="D"/>
  </outline>
</glyph>
<glyph name="Oslash" format="1">
  <advance width="1523"/>
  <unicode hex="00D8"/>
  <outline>
    <contour>
      <point x="363" y="-24" type="curve" smooth="yes"/>
      <point x="496" y="-24"/>
      <point x="695" y="62"/>
      <point x="695" y="197" type="curve" smooth="yes"/>
      <point x="695" y="264"/>
      <point x="709" y="365"/>
      <point x="677" y="403" type="curve"/>
      <point x="744" y="373"/>
      <point x="863" y="411"/>
      <point x="954" y="411" type="curve"/>
      <point x="1281" y="411"/>
      <point x="1385" y="608"/>
      <point x="1385" y="954" type="curve"/>
      <point x="1385" y="1142"/>
      <point x="1320" y="1262"/>
      <point x="1227" y="1353" type="curve"/>
      <point x="1197" y="1372"/>
      <point x="1236" y="1504"/>
      <point x="1189" y="1504" type="curve" smooth="yes"/>
      <point x="1056" y="1504"/>
      <point x="853" y="1419"/>
      <point x="853" y="1283" type="curve" smooth="yes"/>
      <point x="853" y="1218"/>
      <point x="834" y="1112"/>
      <point x="864" y="1074" type="curve"/>
      <point x="795" y="1109"/>
      <point x="668" y="1070"/>
      <point x="568" y="1070" type="curve"/>
      <point x="243" y="1070"/>
      <point x="135" y="875"/>
      <point x="135" y="527" type="curve"/>
      <point x="135" y="332"/>
      <point x="208" y="209"/>
      <point x="311" y="118" type="curve"/>
      <point x="341" y="96"/>
      <point x="313" y="-24"/>
    </contour>
    <contour>
      <point x="469" y="439" type="line"/>
      <point x="440" y="521"/>
      <point x="428" y="624"/>
      <point x="428" y="740" type="curve" smooth="yes"/>
      <point x="428" y="1041"/>
      <point x="502" y="1247"/>
      <point x="765" y="1247" type="curve" smooth="yes"/>
      <point x="853" y="1247"/>
      <point x="920" y="1221"/>
      <point x="970" y="1177" type="curve"/>
    </contour>
    <contour>
      <point x="765" y="233" type="curve" smooth="yes"/>
      <point x="681" y="233"/>
      <point x="617" y="254"/>
      <point x="567" y="293" type="curve"/>
      <point x="1062" y="1022" type="line"/>
      <point x="1087" y="943"/>
      <point x="1099" y="845"/>
      <point x="1099" y="740" type="curve" smooth="yes"/>
      <point x="1099" y="452"/>
      <point x="1027" y="233"/>
    </contour>
  </outline>
</glyph>
<glyph name="Thorn" format="1">
  <advance width="1360"/>
  <unicode hex="00DE"/>
  <outline>
    <contour>
      <point x="161" y="0" type="line"/>
      <point x="505" y="0" type="line"/>
      <point x="505" y="329" type="line"/>
      <point x="716" y="329" type="line" smooth="yes"/>
      <point x="1079" y="329"/>
      <point x="1299" y="519"/>
      <point x="1299" y="817" type="curve" smooth="yes"/>
      <point x="1299" y="1158"/>
      <point x="1048" y="1286"/>
      <point x="737" y="1286" type="curve" smooth="yes"/>
      <point x="505" y="1286" type="line"/>
      <point x="505" y="1481" type="line"/>
      <point x="161" y="1481" type="line"/>
    </contour>
    <contour>
      <point x="505" y="581" type="line"/>
      <point x="505" y="1032" type="line"/>
      <point x="632" y="1032" type="line" smooth="yes"/>
      <point x="801" y="1032"/>
      <point x="950" y="1002"/>
      <point x="950" y="814" type="curve" smooth="yes"/>
      <point x="950" y="601"/>
      <point x="779" y="581"/>
      <point x="577" y="581" type="curve" smooth="yes"/>
    </contour>
  </outline>
</glyph>
<glyph name="germandbls" format="1">
  <advance width="1234"/>
  <unicode hex="00DF"/>
  <outline>
    <contour>
      <point x="701" y="-5" type="curve"/>
      <point x="1046" y="-5"/>
      <point x="1233" y="164"/>
      <point x="1233" y="455" type="curve"/>
      <point x="1233" y="617"/>
      <point x="1102" y="809"/>
      <point x="866" y="863" type="curve" smooth="yes"/>
      <point x="866" y="873" type="line" smooth="yes"/>
      <point x="1001" y="895"/>
      <point x="1117" y="1010"/>
      <point x="1117" y="1164" type="curve" smooth="yes"/>
      <point x="1117" y="1362"/>
      <point x="934" y="1504"/>
      <point x="624" y="1504" type="curve"/>
      <point x="286" y="1504"/>
      <point x="117" y="1334"/>
      <point x="117" y="1031" type="curve"/>
      <point x="117" y="0" type="line" smooth="yes"/>
      <point x="428" y="0" type="line" smooth="yes"/>
      <point x="428" y="1055" type="line"/>
      <point x="428" y="1199"/>
      <point x="480" y="1283"/>
      <point x="637" y="1283" type="curve"/>
      <point x="757" y="1283"/>
      <point x="808" y="1228"/>
      <point x="808" y="1131" type="curve" smooth="yes"/>
      <point x="808" y="1006"/>
      <point x="711" y="967"/>
      <point x="600" y="967" type="curve" smooth="yes"/>
      <point x="600" y="739" type="line"/>
      <point x="801" y="739"/>
      <point x="918" y="602"/>
      <point x="918" y="465" type="curve"/>
      <point x="918" y="320"/>
      <point x="831" y="233"/>
      <point x="643" y="233" type="curve" smooth="yes"/>
      <point x="630" y="233"/>
      <point x="616" y="232"/>
      <point x="603" y="234" type="curve" smooth="yes"/>
      <point x="603" y="-1" type="line" smooth="yes"/>
      <point x="646" y="-3"/>
      <point x="683" y="-5"/>
    </contour>
  </outline>
</glyph>
<glyph name="ae" format="1">
  <advance width="1768"/>
  <unicode hex="00E6"/>
  <outline>
    <contour>
      <point x="1033" y="-25" type="curve" smooth="yes"/>
      <point x="1250" y="-25"/>
      <point x="1376" y="31"/>
      <point x="1469" y="125" type="curve"/>
      <point x="1482" y="93"/>
      <point x="1483" y="229"/>
      <point x="1547" y="229" type="curve" smooth="yes"/>
      <point x="1616" y="229"/>
      <point x="1609" y="248"/>
      <point x="1634" y="264" type="curve"/>
      <point x="1596" y="214"/>
      <point x="1487" y="226"/>
      <point x="1412" y="226" type="curve"/>
      <point x="1299" y="226"/>
      <point x="1199" y="264"/>
      <point x="1190" y="380" type="curve"/>
      <point x="1180" y="371"/>
      <point x="1652" y="351"/>
      <point x="1609" y="351" type="curve" smooth="yes"/>
      <point x="1549" y="351"/>
      <point x="1517" y="488"/>
      <point x="1515" y="546" type="curve"/>
      <point x="1515" y="761"/>
      <point x="1592" y="889"/>
      <point x="1367" y="889" type="curve"/>
      <point x="1278" y="889"/>
      <point x="1171" y="876"/>
      <point x="1118" y="795" type="curve" smooth="yes"/>
      <point x="1063" y="971"/>
      <point x="925" y="1059"/>
      <point x="708" y="1059" type="curve" smooth="yes"/>
      <point x="563" y="1059"/>
      <point x="386" y="1013"/>
      <point x="315" y="952" type="curve"/>
      <point x="290" y="987"/>
      <point x="290" y="831"/>
      <point x="240" y="831" type="curve" smooth="yes"/>
      <point x="262" y="865"/>
      <point x="319" y="881"/>
      <point x="360" y="867" type="curve"/>
      <point x="497" y="867"/>
      <point x="542" y="767"/>
      <point x="542" y="700" type="curve"/>
      <point x="564" y="713"/>
      <point x="541" y="721"/>
      <point x="533" y="713" type="curve" smooth="yes"/>
      <point x="390" y="699"/>
      <point x="237" y="614"/>
      <point x="238" y="400" type="curve"/>
      <point x="238" y="253"/>
      <point x="297" y="170"/>
      <point x="482" y="169" type="curve" smooth="yes"/>
      <point x="510" y="164"/>
      <point x="570" y="190"/>
      <point x="629" y="189" type="curve" smooth="yes"/>
      <point x="685" y="68"/>
      <point x="813" y="-25"/>
    </contour>
    <contour>
      <point x="507" y="194" type="curve" smooth="yes"/>
      <point x="390" y="194"/>
      <point x="347" y="245"/>
      <point x="347" y="320" type="curve" smooth="yes"/>
      <point x="347" y="438"/>
      <point x="481" y="455"/>
      <point x="709" y="466" type="curve"/>
      <point x="714" y="338"/>
      <point x="694" y="194"/>
    </contour>
    <contour>
      <point x="1014" y="630" type="line"/>
      <point x="1020" y="760"/>
      <point x="1083" y="856"/>
      <point x="1221" y="856" type="curve" smooth="yes"/>
      <point x="1345" y="856"/>
      <point x="1415" y="768"/>
      <point x="1417" y="630" type="curve"/>
    </contour>
  </outline>
</glyph>
<glyph name="eth" format="1">
  <advance width="964"/>
  <unicode hex="00F0"/>
  <outline>
    <contour>
      <point x="624" y="-24" type="curve" smooth="yes"/>
      <point x="953" y="-24"/>
      <point x="1164" y="183"/>
      <point x="1164" y="547" type="curve" smooth="yes"/>
      <point x="1164" y="917"/>
      <point x="1031" y="1191"/>
      <point x="774" y="1344" type="curve"/>
      <point x="860" y="1458" type="line"/>
      <point x="754" y="1526" type="line"/>
      <point x="659" y="1402" type="line"/>
      <point x="552" y="1448"/>
      <point x="428" y="1475"/>
      <point x="287" y="1481" type="curve" smooth="yes"/>
      <point x="236" y="1247" type="line"/>
      <point x="340" y="1237"/>
      <point x="428" y="1219"/>
      <point x="504" y="1187" type="curve"/>
      <point x="420" y="1079" type="line"/>
      <point x="527" y="1008" type="line"/>
      <point x="617" y="1124" type="line"/>
      <point x="698" y="1062"/>
      <point x="752" y="972"/>
      <point x="783" y="854" type="curve"/>
      <point x="711" y="911"/>
      <point x="604" y="945"/>
      <point x="510" y="945" type="curve" smooth="yes"/>
      <point x="261" y="945"/>
      <point x="86" y="788"/>
      <point x="86" y="487" type="curve" smooth="yes"/>
      <point x="86" y="169"/>
      <point x="299" y="-24"/>
    </contour>
    <contour>
      <point x="634" y="211" type="curve" smooth="yes"/>
      <point x="459" y="211"/>
      <point x="417" y="318"/>
      <point x="417" y="477" type="curve" smooth="yes"/>
      <point x="417" y="635"/>
      <point x="505" y="706"/>
      <point x="624" y="706" type="curve" smooth="yes"/>
      <point x="817" y="705"/>
      <point x="840" y="589"/>
      <point x="840" y="464" type="curve" smooth="yes"/>
      <point x="840" y="325"/>
      <point x="769" y="211"/>
    </contour>
  </outline>
</glyph>
<glyph name="oslash" format="1">
  <advance width="1162"/>
  <unicode hex="00F8"/>
  <outline>
    <contour>
      <point x="75" y="-116" type="line" smooth="yes"/>
      <point x="229" y="-116" type="line" smooth="yes"/>
      <point x="325" y="25" type="line"/>
      <point x="399" y="-9"/>
      <point x="484" y="-25"/>
      <point x="581" y="-25" type="curve"/>
      <point x="914" y="-25"/>
      <point x="1111" y="161"/>
      <point x="1111" y="518" type="curve"/>
      <point x="1111" y="706"/>
      <point x="1058" y="847"/>
      <point x="955" y="936" type="curve"/>
      <point x="1087" y="1127" type="line" smooth="yes"/>
      <point x="931" y="1127" type="line" smooth="yes"/>
      <point x="848" y="1004" type="line"/>
      <point x="773" y="1041"/>
      <point x="682" y="1059"/>
      <point x="581" y="1059" type="curve"/>
      <point x="252" y="1059"/>
      <point x="53" y="878"/>
      <point x="53" y="519" type="curve"/>
      <point x="53" y="325"/>
      <point x="110" y="183"/>
      <point x="216" y="92" type="curve"/>
    </contour>
    <contour>
      <point x="516" y="240" type="curve"/>
      <point x="482" y="256"/>
      <point x="453" y="282"/>
      <point x="433" y="320" type="curve" smooth="yes"/>
      <point x="433" y="394"/>
      <point x="661" y="723"/>
      <point x="707" y="723" type="curve" smooth="yes"/>
      <point x="736" y="696"/>
      <point x="756" y="657"/>
      <point x="769" y="602" type="curve"/>
      <point x="769" y="446"/>
      <point x="603" y="240"/>
    </contour>
    <contour>
      <point x="457" y="306" type="curve" smooth="yes"/>
      <point x="432" y="334"/>
      <point x="413" y="373"/>
      <point x="400" y="427" type="curve"/>
      <point x="400" y="608"/>
      <point x="580" y="789"/>
      <point x="653" y="789" type="curve"/>
      <point x="684" y="773"/>
      <point x="712" y="749"/>
      <point x="734" y="712" type="curve" smooth="yes"/>
      <point x="734" y="645"/>
      <point x="511" y="306"/>
    </contour>
  </outline>
</glyph>
<glyph name="dcroat" format="1">
  <advance width="1219"/>
  <unicode hex="0111"/>
  <outline>
    <contour>
      <point x="506" y="-21" type="curve"/>
      <point x="627" y="-21"/>
      <point x="724" y="21"/>
      <point x="792" y="85" type="curve"/>
      <point x="792" y="0" type="line"/>
      <point x="1104" y="0" type="line"/>
      <point x="1104" y="1435" type="line"/>
      <point x="792" y="1435" type="line"/>
      <point x="792" y="961" type="line"/>
      <point x="721" y="1015"/>
      <point x="626" y="1059"/>
      <point x="516" y="1059" type="curve" smooth="yes"/>
      <point x="224" y="1059"/>
      <point x="81" y="859"/>
      <point x="81" y="525" type="curve" smooth="yes"/>
      <point x="81" y="207"/>
      <point x="229" y="-21"/>
    </contour>
    <contour>
      <point x="633" y="205" type="curve" smooth="yes"/>
      <point x="473" y="205"/>
      <point x="396" y="333"/>
      <point x="396" y="512" type="curve" smooth="yes"/>
      <point x="396" y="693"/>
      <point x="446" y="831"/>
      <point x="587" y="831" type="curve" smooth="yes"/>
      <point x="636" y="831"/>
      <point x="717" y="816"/>
      <point x="792" y="776" type="curve"/>
      <point x="792" y="236" type="line"/>
      <point x="744" y="211"/>
      <point x="671" y="205"/>
    </contour>
  </outline>
</glyph>
<glyph name="lslash" format="1">
  <advance width="616"/>
  <unicode hex="0142"/>
  <outline>
    <contour>
      <point x="500" y="-2" type="curve" smooth="yes"/>
      <point x="583" y="-2" type="line"/>
      <point x="583" y="212" type="line"/>
      <point x="447" y="212"/>
      <point x="428" y="262"/>
      <point x="428" y="340" type="curve" smooth="yes"/>
      <point x="428" y="777" type="line"/>
      <point x="571" y="867" type="line"/>
      <point x="571" y="1034" type="line"/>
      <point x="428" y="943" type="line"/>
      <point x="427" y="1434" type="line"/>
      <point x="119" y="1434" type="line"/>
      <point x="119" y="749" type="line"/>
      <point x="0" y="675" type="line"/>
      <point x="0" y="508" type="line"/>
      <point x="119" y="583" type="line"/>
      <point x="119" y="354" type="line" smooth="yes"/>
      <point x="119" y="180"/>
      <point x="106" y="-2"/>
    </contour>
  </outline>
</glyph>
<glyph name="uni0237" format="1">
  <advance width="575"/>
  <unicode hex="0237"/>
  <outline>
    <contour>
      <point x="105" y="-383" type="curve" smooth="yes"/>
      <point x="335" y="-383"/>
      <point x="459" y="-243"/>
      <point x="459" y="-22" type="curve" smooth="yes"/>
      <point x="459" y="1041" type="line"/>
      <point x="174" y="1041" type="line"/>
      <point x="174" y="39" type="line" smooth="yes"/>
      <point x="174" y="-164"/>
      <point x="110" y="-186"/>
      <point x="8" y="-186" type="curve" smooth="yes"/>
      <point x="-23" y="-186"/>
      <point x="-47" y="-185"/>
      <point x="-83" y="-182" type="curve"/>
      <point x="-83" y="-375" type="line"/>
      <point x="-50" y="-378"/>
      <point x="0" y="-383"/>
    </contour>
  </outline>
</glyph>
<glyph name="circumflex" format="1">
  <advance width="852"/>
  <unicode hex="02C6"/>
  <outline>
    <contour>
      <point x="31" y="1171" type="line"/>
      <point x="272" y="1171" type="line"/>
      <point x="426" y="1356" type="line"/>
      <point x="580" y="1171" type="line"/>
      <point x="824" y="1171" type="line"/>
      <point x="534" y="1514" type="line"/>
      <point x="319" y="1514" type="line"/>
    </contour>
  </outline>
</glyph>
<glyph name="caron" format="1">
  <advance width="885"/>
  <unicode hex="02C7"/>
  <outline>
    <contour>
      <point x="329" y="1174" type="line"/>
      <point x="554" y="1174" type="line"/>
      <point x="867" y="1514" type="line"/>
      <point x="609" y="1514" type="line"/>
      <point x="444" y="1330" type="line"/>
      <point x="276" y="1514" type="line"/>
      <point x="17" y="1514" type="line"/>
    </contour>
  </outline>
</glyph>
<glyph name="uni02C9" format="1">
  <advance width="540"/>
  <unicode hex="02C9"/>
  <outline>
    <contour>
      <point x="-7" y="1168" type="line"/>
      <point x="548" y="1168" type="line"/>
      <point x="548" y="1323" type="line"/>
      <point x="-7" y="1323" type="line"/>
    </contour>
  </outline>
</glyph>
<glyph name="breve" format="1">
  <advance width="847"/>
  <unicode hex="02D8"/>
  <outline>
    <contour>
      <point x="427" y="1150" type="curve" smooth="yes"/>
      <point x="638" y="1150"/>
      <point x="773" y="1264"/>
      <point x="776" y="1479" type="curve"/>
      <point x="594" y="1479" type="line"/>
      <point x="587" y="1382"/>
      <point x="538" y="1315"/>
      <point x="427" y="1315" type="curve" smooth="yes"/>
      <point x="303" y="1315"/>
      <point x="267" y="1385"/>
      <point x="258" y="1479" type="curve"/>
      <point x="78" y="1479" type="line"/>
      <point x="81" y="1264"/>
      <point x="199" y="1150"/>
    </contour>
  </outline>
</glyph>
<glyph name="dotaccent" format="1">
  <advance width="363"/>
  <unicode hex="02D9"/>
  <outline>
    <contour>
      <point x="40" y="141" type="curve" smooth="yes"/>
      <point x="148" y="141"/>
      <point x="235" y="229"/>
      <point x="235" y="335" type="curve" smooth="yes"/>
      <point x="235" y="443"/>
      <point x="148" y="530"/>
      <point x="40" y="530" type="curve" smooth="yes"/>
      <point x="-67" y="530"/>
      <point x="-155" y="443"/>
      <point x="-155" y="335" type="curve" smooth="yes"/>
      <point x="-155" y="229"/>
      <point x="-67" y="141"/>
    </contour>
  </outline>
</glyph>
<glyph name="ring" format="1">
  <advance width="751"/>
  <unicode hex="02DA"/>
  <outline>
    <contour>
      <point x="378" y="257" type="curve" smooth="yes"/>
      <point x="269" y="257"/>
      <point x="180" y="341"/>
      <point x="180" y="451" type="curve" smooth="yes"/>
      <point x="180" y="556"/>
      <point x="268" y="646"/>
      <point x="378" y="646" type="curve" smooth="yes"/>
      <point x="487" y="646"/>
      <point x="575" y="556"/>
      <point x="575" y="451" type="curve" smooth="yes"/>
      <point x="575" y="344"/>
      <point x="488" y="257"/>
    </contour>
    <contour>
      <point x="378" y="155" type="curve" smooth="yes"/>
      <point x="549" y="155"/>
      <point x="688" y="285"/>
      <point x="688" y="451" type="curve" smooth="yes"/>
      <point x="688" y="616"/>
      <point x="549" y="746"/>
      <point x="378" y="746" type="curve" smooth="yes"/>
      <point x="207" y="746"/>
      <point x="68" y="617"/>
      <point x="68" y="451" type="curve" smooth="yes"/>
      <point x="68" y="286"/>
      <point x="206" y="155"/>
    </contour>
  </outline>
</glyph>
<glyph name="ogonek" format="1">
  <advance width="759"/>
  <unicode hex="02DB"/>
  <outline>
    <contour>
      <point x="422" y="-407" type="curve" smooth="yes"/>
      <point x="484" y="-412"/>
      <point x="551" y="-400"/>
      <point x="615" y="-377" type="curve"/>
      <point x="605" y="-245" type="line"/>
      <point x="582" y="-254"/>
      <point x="542" y="-273"/>
      <point x="486" y="-273" type="curve" smooth="yes"/>
      <point x="409" y="-273"/>
      <point x="365" y="-223"/>
      <point x="368" y="-140" type="curve" smooth="yes"/>
      <point x="372" y="-93"/>
      <point x="395" y="-40"/>
      <point x="431" y="5" type="curve"/>
      <point x="286" y="5" type="line"/>
      <point x="236" y="-53"/>
      <point x="191" y="-132"/>
      <point x="201" y="-234" type="curve" smooth="yes"/>
      <point x="217" y="-335"/>
      <point x="304" y="-407"/>
    </contour>
  </outline>
</glyph>
<glyph name="tilde" format="1">
  <advance width="1113"/>
  <unicode hex="02DC"/>
  <outline>
    <contour>
      <point x="775" y="201" type="curve" smooth="yes"/>
      <point x="935" y="201"/>
      <point x="976" y="273"/>
      <point x="979" y="533" type="curve"/>
      <point x="795" y="533" type="line"/>
      <point x="795" y="443"/>
      <point x="783" y="431"/>
      <point x="745" y="431" type="curve" smooth="yes"/>
      <point x="705" y="431"/>
      <point x="447" y="533"/>
      <point x="347" y="533" type="curve" smooth="yes"/>
      <point x="210" y="533"/>
      <point x="134" y="445"/>
      <point x="134" y="201" type="curve"/>
      <point x="134" y="199"/>
      <point x="317" y="201"/>
      <point x="317" y="201" type="curve"/>
      <point x="317" y="282"/>
      <point x="336" y="299"/>
      <point x="379" y="299" type="curve" smooth="yes"/>
      <point x="446" y="299"/>
      <point x="657" y="201"/>
    </contour>
  </outline>
</glyph>
<glyph name="Delta" format="1">
  <advance width="1111"/>
  <unicode hex="0394"/>
  <outline>
    <contour>
      <point x="36" y="0" type="line"/>
      <point x="1075" y="0" type="line"/>
      <point x="1075" y="152" type="line"/>
      <point x="692" y="1376" type="line"/>
      <point x="432" y="1376" type="line"/>
      <point x="36" y="149" type="line"/>
    </contour>
    <contour>
      <point x="269" y="178" type="line"/>
      <point x="269" y="178"/>
      <point x="538" y="1058"/>
      <point x="554" y="1135" type="curve"/>
      <point x="559" y="1135" type="line"/>
      <point x="575" y="1046"/>
      <point x="831" y="178"/>
      <point x="831" y="178" type="curve"/>
    </contour>
  </outline>
</glyph>
<glyph name="Omega" format="1">
  <advance width="1426"/>
  <unicode hex="03A9"/>
  <outline>
    <contour>
      <point x="77" y="0" type="line"/>
      <point x="614" y="0" type="line"/>
      <point x="614" y="200" type="line"/>
      <point x="449" y="339"/>
      <point x="373" y="504"/>
      <point x="373" y="721" type="curve" smooth="yes"/>
      <point x="373" y="977"/>
      <point x="517" y="1145"/>
      <point x="719" y="1145" type="curve" smooth="yes"/>
      <point x="922" y="1145"/>
      <point x="1054" y="959"/>
      <point x="1054" y="730" type="curve" smooth="yes"/>
      <point x="1054" y="498"/>
      <point x="962" y="321"/>
      <point x="811" y="200" type="curve"/>
      <point x="811" y="0" type="line"/>
      <point x="1348" y="0" type="line"/>
      <point x="1348" y="217" type="line"/>
      <point x="1115" y="217" type="line"/>
      <point x="1042" y="218" type="line"/>
      <point x="1228" y="337"/>
      <point x="1341" y="529"/>
      <point x="1341" y="776" type="curve" smooth="yes"/>
      <point x="1341" y="1106"/>
      <point x="1098" y="1373"/>
      <point x="715" y="1373" type="curve" smooth="yes"/>
      <point x="348" y="1373"/>
      <point x="87" y="1124"/>
      <point x="87" y="767" type="curve" smooth="yes"/>
      <point x="87" y="521"/>
      <point x="201" y="314"/>
      <point x="378" y="217" type="curve"/>
      <point x="77" y="217" type="line"/>
    </contour>
  </outline>
</glyph>
<glyph name="pi" format="1">
  <advance width="1213"/>
  <unicode hex="03C0"/>
  <outline>
    <contour>
      <point x="157" y="0" type="curve"/>
      <point x="416" y="0" type="line"/>
      <point x="442" y="74"/>
      <point x="459" y="183"/>
      <point x="465" y="319" type="curve" smooth="yes"/>
      <point x="474" y="477"/>
      <point x="480" y="640"/>
      <point x="482" y="781" type="curve"/>
      <point x="724" y="781" type="line"/>
      <point x="724" y="326" type="line" smooth="yes"/>
      <point x="724" y="140"/>
      <point x="787" y="32"/>
      <point x="921" y="10" type="curve"/>
      <point x="961" y="1"/>
      <point x="998" y="1"/>
      <point x="1034" y="9" type="curve"/>
      <point x="1099" y="154" type="line"/>
      <point x="1075" y="166"/>
      <point x="1052" y="188"/>
      <point x="1034" y="240" type="curve"/>
      <point x="999" y="251"/>
      <point x="982" y="291"/>
      <point x="982" y="360" type="curve" smooth="yes"/>
      <point x="982" y="781" type="line"/>
      <point x="1160" y="781" type="line"/>
      <point x="1165" y="983" type="line"/>
      <point x="328" y="983" type="line" smooth="yes"/>
      <point x="175" y="983"/>
      <point x="77" y="972"/>
      <point x="11" y="924" type="curve"/>
      <point x="20" y="724" type="line"/>
      <point x="81" y="761"/>
      <point x="146" y="781"/>
      <point x="227" y="781" type="curve"/>
      <point x="226" y="642"/>
      <point x="220" y="486"/>
      <point x="212" y="332" type="curve"/>
      <point x="204" y="198"/>
      <point x="187" y="85"/>
    </contour>
  </outline>
</glyph>
<glyph name="quotesinglbase" format="1">
  <advance width="500"/>
  <unicode hex="201A"/>
  <outline>
    <contour>
      <point x="74" y="-244" type="line"/>
      <point x="298" y="-244" type="line"/>
      <point x="298" y="-244"/>
      <point x="452" y="183"/>
      <point x="473" y="243" type="curve"/>
      <point x="173" y="243" type="line"/>
    </contour>
  </outline>
</glyph>
<glyph name="daggerdbl" format="1">
  <advance width="1163"/>
  <unicode hex="2021"/>
  <outline>
    <contour>
      <point x="453" y="-47" type="line"/>
      <point x="710" y="-47" type="line"/>
      <point x="710" y="334" type="line"/>
      <point x="1053" y="334" type="line"/>
      <point x="1053" y="540" type="line"/>
      <point x="708" y="540" type="line"/>
      <point x="708" y="857" type="line"/>
      <point x="1053" y="857" type="line"/>
      <point x="1053" y="1064" type="line"/>
      <point x="712" y="1064" type="line"/>
      <point x="712" y="1436" type="line"/>
      <point x="456" y="1436" type="line"/>
      <point x="456" y="1067" type="line"/>
      <point x="112" y="1067" type="line"/>
      <point x="112" y="860" type="line"/>
      <point x="458" y="860" type="line"/>
      <point x="458" y="543" type="line"/>
      <point x="112" y="543" type="line"/>
      <point x="112" y="336" type="line"/>
      <point x="453" y="336" type="line"/>
    </contour>
  </outline>
</glyph>
<glyph name="bullet" format="1">
  <advance width="1190"/>
  <unicode hex="2022"/>
  <outline>
    <contour>
      <point x="595" y="208" type="curve" smooth="yes"/>
      <point x="852" y="208"/>
      <point x="1062" y="408"/>
      <point x="1062" y="655" type="curve" smooth="yes"/>
      <point x="1062" y="901"/>
      <point x="854" y="1101"/>
      <point x="595" y="1101" type="curve" smooth="yes"/>
      <point x="341" y="1101"/>
      <point x="129" y="901"/>
      <point x="129" y="655" type="curve" smooth="yes"/>
      <point x="129" y="409"/>
      <point x="339" y="208"/>
    </contour>
  </outline>
</glyph>
<glyph name="perthousand" format="1">
  <advance width="2515"/>
  <unicode hex="2030"/>
  <outline>
    <contour>
      <point x="375" y="856" type="curve" smooth="yes"/>
      <point x="284" y="856"/>
      <point x="279" y="932"/>
      <point x="279" y="1037" type="curve" smooth="yes"/>
      <point x="279" y="1159"/>
      <point x="286" y="1233"/>
      <point x="375" y="1233" type="curve" smooth="yes"/>
      <point x="461" y="1233"/>
      <point x="474" y="1162"/>
      <point x="474" y="1051" type="curve"/>
      <point x="472" y="913"/>
      <point x="455" y="856"/>
    </contour>
    <contour>
      <point x="375" y="686" type="curve" smooth="yes"/>
      <point x="595" y="686"/>
      <point x="696" y="808"/>
      <point x="696" y="1069" type="curve" smooth="yes"/>
      <point x="696" y="1291"/>
      <point x="580" y="1398"/>
      <point x="375" y="1398" type="curve" smooth="yes"/>
      <point x="158" y="1398"/>
      <point x="51" y="1281"/>
      <point x="51" y="1019" type="curve" smooth="yes"/>
      <point x="51" y="792"/>
      <point x="171" y="686"/>
    </contour>
    <contour>
      <point x="375" y="0" type="line"/>
      <point x="618" y="0" type="line"/>
      <point x="1350" y="1395" type="line"/>
      <point x="1107" y="1395" type="line"/>
    </contour>
    <contour>
      <point x="1364" y="165" type="curve" smooth="yes"/>
      <point x="1273" y="165"/>
      <point x="1267" y="242"/>
      <point x="1267" y="347" type="curve" smooth="yes"/>
      <point x="1267" y="468"/>
      <point x="1275" y="542"/>
      <point x="1364" y="542" type="curve" smooth="yes"/>
      <point x="1451" y="542"/>
      <point x="1462" y="471"/>
      <point x="1462" y="360" type="curve" smooth="yes"/>
      <point x="1461" y="223"/>
      <point x="1444" y="165"/>
    </contour>
    <contour>
      <point x="1364" y="-3" type="curve" smooth="yes"/>
      <point x="1586" y="-3"/>
      <point x="1685" y="116"/>
      <point x="1685" y="378" type="curve" smooth="yes"/>
      <point x="1685" y="599"/>
      <point x="1569" y="708"/>
      <point x="1364" y="708" type="curve" smooth="yes"/>
      <point x="1147" y="708"/>
      <point x="1040" y="590"/>
      <point x="1040" y="328" type="curve" smooth="yes"/>
      <point x="1040" y="101"/>
      <point x="1160" y="-3"/>
    </contour>
    <contour>
      <point x="2139" y="165" type="curve" smooth="yes"/>
      <point x="2047" y="165"/>
      <point x="2042" y="242"/>
      <point x="2042" y="347" type="curve" smooth="yes"/>
      <point x="2042" y="468"/>
      <point x="2049" y="542"/>
      <point x="2139" y="542" type="curve" smooth="yes"/>
      <point x="2226" y="542"/>
      <point x="2236" y="471"/>
      <point x="2236" y="360" type="curve"/>
      <point x="2234" y="223"/>
      <point x="2219" y="165"/>
    </contour>
    <contour>
      <point x="2139" y="-3" type="curve" smooth="yes"/>
      <point x="2360" y="-3"/>
      <point x="2459" y="116"/>
      <point x="2459" y="378" type="curve" smooth="yes"/>
      <point x="2459" y="599"/>
      <point x="2343" y="708"/>
      <point x="2139" y="708" type="curve" smooth="yes"/>
      <point x="1921" y="708"/>
      <point x="1815" y="590"/>
      <point x="1815" y="328" type="curve" smooth="yes"/>
      <point x="1815" y="101"/>
      <point x="1934" y="-3"/>
    </contour>
  </outline>
</glyph>
<glyph name="guilsinglright" format="1">
  <advance width="679"/>
  <unicode hex="203A"/>
  <outline>
    <contour>
      <point x="108" y="135" type="line"/>
      <point x="108" y="135"/>
      <point x="507" y="457"/>
      <point x="610" y="542" type="curve"/>
      <point x="610" y="654" type="line"/>
      <point x="508" y="730"/>
      <point x="108" y="1052"/>
      <point x="108" y="1052" type="curve"/>
      <point x="108" y="770" type="line"/>
      <point x="184" y="709"/>
      <point x="256" y="653"/>
      <point x="333" y="593" type="curve"/>
      <point x="108" y="412" type="line"/>
    </contour>
  </outline>
</glyph>
<glyph name="fraction" format="1">
  <advance width="792"/>
  <unicode hex="2044"/>
  <outline>
    <contour>
      <point x="-138" y="-13" type="line"/>
      <point x="123" y="-13" type="line"/>
      <point x="923" y="1407" type="line"/>
      <point x="663" y="1407" type="line"/>
    </contour>
  </outline>
</glyph>
<glyph name="trademark" format="1">
  <advance width="1728"/>
  <unicode hex="2122"/>
  <outline>
    <contour>
      <point x="763" y="768" type="line"/>
      <point x="932" y="768" type="line"/>
      <point x="932" y="1330" type="line"/>
      <point x="949" y="1330" type="line"/>
      <point x="1140" y="877" type="line"/>
      <point x="1267" y="877" type="line"/>
      <point x="1457" y="1325" type="line"/>
      <point x="1470" y="1325" type="line"/>
      <point x="1470" y="768" type="line"/>
      <point x="1639" y="768" type="line"/>
      <point x="1639" y="1482" type="line"/>
      <point x="1372" y="1482" type="line"/>
      <point x="1205" y="1073" type="line"/>
      <point x="1043" y="1482" type="line"/>
      <point x="763" y="1482" type="line"/>
    </contour>
    <contour>
      <point x="270" y="768" type="line"/>
      <point x="447" y="768" type="line"/>
      <point x="447" y="1336" type="line"/>
      <point x="653" y="1336" type="line"/>
      <point x="653" y="1482" type="line"/>
      <point x="65" y="1482" type="line"/>
      <point x="65" y="1336" type="line"/>
      <point x="270" y="1336" type="line"/>
    </contour>
  </outline>
</glyph>
<glyph name="product" format="1">
  <advance width="1420"/>
  <unicode hex="220F"/>
  <outline>
    <contour>
      <point x="136" y="-266" type="line"/>
      <point x="431" y="-266" type="line"/>
      <point x="431" y="1183" type="line"/>
      <point x="999" y="1183" type="line"/>
      <point x="999" y="-266" type="line"/>
      <point x="1293" y="-266" type="line"/>
      <point x="1293" y="1430" type="line"/>
      <point x="136" y="1430" type="line"/>
    </contour>
  </outline>
</glyph>
<glyph name="summation" format="1">
  <advance width="1184"/>
  <unicode hex="2211"/>
  <outline>
    <contour>
      <point x="85" y="0" type="line"/>
      <point x="1104" y="0" type="line"/>
      <point x="1104" y="216" type="line"/>
      <point x="402" y="216" type="line"/>
      <point x="869" y="797" type="line"/>
      <point x="435" y="1272" type="line"/>
      <point x="1074" y="1272" type="line"/>
      <point x="1074" y="1481" type="line"/>
      <point x="106" y="1481" type="line"/>
      <point x="106" y="1317" type="line"/>
      <point x="593" y="783" type="line"/>
      <point x="85" y="165" type="line"/>
    </contour>
  </outline>
</glyph>
<glyph name="uni2215" format="1">
  <advance width="994"/>
  <unicode hex="2215"/>
  <outline>
    <contour>
      <point x="80" y="0" type="line"/>
      <point x="359" y="0" type="line"/>
      <point x="894" y="1481" type="line"/>
      <point x="612" y="1481" type="line"/>
    </contour>
  </outline>
</glyph>
<glyph name="radical" format="1">
  <advance width="1140"/>
  <unicode hex="221A"/>
  <outline>
    <contour>
      <point x="516" y="-99" type="line"/>
      <point x="698" y="-99" type="line"/>
      <point x="1096" y="1497" type="line"/>
      <point x="923" y="1497" type="line"/>
      <point x="831" y="1121"/>
      <point x="737" y="747"/>
      <point x="645" y="370" type="curve" smooth="yes"/>
      <point x="603" y="187" type="line"/>
      <point x="581" y="230"/>
      <point x="557" y="305"/>
      <point x="537" y="361" type="curve"/>
      <point x="368" y="817" type="line"/>
      <point x="43" y="777" type="line"/>
      <point x="54" y="635" type="line"/>
      <point x="217" y="653" type="line"/>
    </contour>
  </outline>
</glyph>
<glyph name="infinity" format="1">
  <advance width="1508"/>
  <unicode hex="221E"/>
  <outline>
    <contour>
      <point x="1102" y="204" type="curve" smooth="yes"/>
      <point x="1285" y="204"/>
      <point x="1437" y="354"/>
      <point x="1437" y="554" type="curve" smooth="yes"/>
      <point x="1437" y="762"/>
      <point x="1300" y="901"/>
      <point x="1106" y="903" type="curve" smooth="yes"/>
      <point x="957" y="903"/>
      <point x="847" y="813"/>
      <point x="757" y="682" type="curve"/>
      <point x="666" y="825"/>
      <point x="555" y="908"/>
      <point x="412" y="908" type="curve" smooth="yes"/>
      <point x="223" y="908"/>
      <point x="76" y="755"/>
      <point x="76" y="561" type="curve" smooth="yes"/>
      <point x="76" y="352"/>
      <point x="219" y="210"/>
      <point x="409" y="210" type="curve" smooth="yes"/>
      <point x="552" y="210"/>
      <point x="660" y="291"/>
      <point x="755" y="431" type="curve"/>
      <point x="857" y="274"/>
      <point x="969" y="204"/>
    </contour>
    <contour>
      <point x="430" y="377" type="curve" smooth="yes"/>
      <point x="327" y="377"/>
      <point x="255" y="453"/>
      <point x="255" y="557" type="curve" smooth="yes"/>
      <point x="255" y="662"/>
      <point x="323" y="744"/>
      <point x="427" y="744" type="curve" smooth="yes"/>
      <point x="524" y="744"/>
      <point x="599" y="671"/>
      <point x="671" y="556" type="curve"/>
      <point x="600" y="448"/>
      <point x="524" y="377"/>
    </contour>
    <contour>
      <point x="1086" y="370" type="curve" smooth="yes"/>
      <point x="997" y="370"/>
      <point x="925" y="428"/>
      <point x="842" y="554" type="curve"/>
      <point x="908" y="656"/>
      <point x="990" y="738"/>
      <point x="1084" y="738" type="curve" smooth="yes"/>
      <point x="1186" y="738"/>
      <point x="1256" y="660"/>
      <point x="1256" y="552" type="curve" smooth="yes"/>
      <point x="1256" y="455"/>
      <point x="1188" y="370"/>
    </contour>
  </outline>
</glyph>
<glyph name="integral" format="1">
  <advance width="861"/>
  <unicode hex="222B"/>
  <outline>
    <contour>
      <point x="214" y="-396" type="curve" smooth="yes"/>
      <point x="470" y="-396"/>
      <point x="587" y="-259"/>
      <point x="587" y="81" type="curve"/>
      <point x="587" y="1015" type="line" smooth="yes"/>
      <point x="587" y="1180"/>
      <point x="596" y="1293"/>
      <point x="720" y="1293" type="curve" smooth="yes"/>
      <point x="751" y="1293"/>
      <point x="806" y="1280"/>
      <point x="814" y="1276" type="curve"/>
      <point x="836" y="1469" type="line"/>
      <point x="803" y="1480"/>
      <point x="710" y="1494"/>
      <point x="655" y="1494" type="curve" smooth="yes"/>
      <point x="429" y="1494"/>
      <point x="280" y="1345"/>
      <point x="280" y="1075" type="curve" smooth="yes"/>
      <point x="280" y="27" type="line" smooth="yes"/>
      <point x="280" y="-152"/>
      <point x="232" y="-192"/>
      <point x="146" y="-192" type="curve" smooth="yes"/>
      <point x="115" y="-192"/>
      <point x="59" y="-178"/>
      <point x="50" y="-174" type="curve"/>
      <point x="26" y="-364" type="line"/>
      <point x="61" y="-376"/>
      <point x="157" y="-396"/>
    </contour>
  </outline>
</glyph>
<glyph name="approxequal" format="1">
  <advance width="1212"/>
  <unicode hex="2248"/>
  <outline>
    <contour>
      <point x="276" y="204" type="line"/>
      <point x="294" y="293"/>
      <point x="337" y="351"/>
      <point x="419" y="351" type="curve" smooth="yes"/>
      <point x="456" y="351"/>
      <point x="506" y="327"/>
      <point x="573" y="288" type="curve" smooth="yes"/>
      <point x="667" y="235"/>
      <point x="743" y="209"/>
      <point x="807" y="209" type="curve" smooth="yes"/>
      <point x="968" y="209"/>
      <point x="1070" y="325"/>
      <point x="1092" y="495" type="curve"/>
      <point x="936" y="517" type="line"/>
      <point x="927" y="433"/>
      <point x="882" y="393"/>
      <point x="807" y="382" type="curve" smooth="yes"/>
      <point x="763" y="375"/>
      <point x="703" y="401"/>
      <point x="631" y="443" type="curve"/>
      <point x="562" y="483"/>
      <point x="488" y="514"/>
      <point x="410" y="514" type="curve" smooth="yes"/>
      <point x="250" y="514"/>
      <point x="144" y="400"/>
      <point x="120" y="224" type="curve"/>
    </contour>
    <contour>
      <point x="276" y="593" type="line"/>
      <point x="294" y="680"/>
      <point x="337" y="735"/>
      <point x="419" y="735" type="curve" smooth="yes"/>
      <point x="458" y="735"/>
      <point x="507" y="712"/>
      <point x="573" y="675" type="curve"/>
      <point x="667" y="621"/>
      <point x="742" y="595"/>
      <point x="808" y="595" type="curve" smooth="yes"/>
      <point x="967" y="595"/>
      <point x="1070" y="712"/>
      <point x="1092" y="883" type="curve"/>
      <point x="936" y="904" type="line"/>
      <point x="925" y="819"/>
      <point x="881" y="768"/>
      <point x="799" y="765" type="curve" smooth="yes"/>
      <point x="756" y="763"/>
      <point x="700" y="788"/>
      <point x="631" y="829" type="curve" smooth="yes"/>
      <point x="562" y="870"/>
      <point x="489" y="900"/>
      <point x="412" y="900" type="curve" smooth="yes"/>
      <point x="250" y="900"/>
      <point x="144" y="788"/>
      <point x="120" y="614" type="curve"/>
    </contour>
  </outline>
</glyph>
<glyph name="lessequal" format="1">
  <advance width="1375"/>
  <unicode hex="2264"/>
  <outline>
    <contour>
      <point x="1203" y="254" type="line"/>
      <point x="1203" y="487" type="line"/>
      <point x="513" y="712" type="line"/>
      <point x="1203" y="943" type="line"/>
      <point x="1203" y="1175" type="line"/>
      <point x="204" y="809" type="line"/>
      <point x="204" y="618" type="line"/>
    </contour>
    <contour>
      <point x="199" y="1" type="line"/>
      <point x="1207" y="1" type="line"/>
      <point x="1207" y="176" type="line"/>
      <point x="199" y="176" type="line"/>
    </contour>
  </outline>
</glyph>
<glyph name="greaterequal" format="1">
  <advance width="1364"/>
  <unicode hex="2265"/>
  <outline>
    <contour>
      <point x="203" y="254" type="line"/>
      <point x="1192" y="618" type="line"/>
      <point x="1192" y="808" type="line"/>
      <point x="203" y="1175" type="line"/>
      <point x="203" y="943" type="line"/>
      <point x="886" y="712" type="line"/>
      <point x="203" y="487" type="line"/>
    </contour>
    <contour>
      <point x="199" y="1" type="line"/>
      <point x="1195" y="1" type="line"/>
      <point x="1195" y="176" type="line"/>
      <point x="199" y="176" type="line"/>
    </contour>
  </outline>
</glyph>
<glyph name="lozenge" format="1">
  <advance width="1108"/>
  <unicode hex="25CA"/>
  <outline>
    <contour>
      <point x="452" y="-30" type="line"/>
      <point x="648" y="-30" type="line"/>
      <point x="1042" y="673" type="line"/>
      <point x="652" y="1377" type="line"/>
      <point x="456" y="1377" type="line"/>
      <point x="66" y="672" type="line"/>
    </contour>
    <contour>
      <point x="552" y="177" type="line"/>
      <point x="289" y="674" type="line"/>
      <point x="556" y="1169" type="line"/>
      <point x="820" y="671" type="line" smooth="yes"/>
    </contour>
  </outline>
</glyph>
<glyph name="f_i" format="1">
  <advance width="1265"/>
  <outline>
    <contour>
      <point x="163" y="0" type="line"/>
      <point x="472" y="0" type="line"/>
      <point x="472" y="830" type="line"/>
      <point x="831" y="830" type="line"/>
      <point x="831" y="0" type="line"/>
      <point x="1142" y="0" type="line"/>
      <point x="1142" y="1036" type="line"/>
      <point x="463" y="1036" type="line"/>
      <point x="463" y="1190"/>
      <point x="507" y="1220"/>
      <point x="602" y="1220" type="curve" smooth="yes"/>
      <point x="644" y="1220"/>
      <point x="684" y="1213"/>
      <point x="721" y="1209" type="curve"/>
      <point x="721" y="1430" type="line"/>
      <point x="666" y="1436"/>
      <point x="615" y="1443"/>
      <point x="541" y="1443" type="curve" smooth="yes"/>
      <point x="274" y="1443"/>
      <point x="163" y="1327"/>
      <point x="163" y="1076" type="curve" smooth="yes"/>
      <point x="163" y="1036" type="line"/>
      <point x="22" y="1036" type="line"/>
      <point x="22" y="830" type="line"/>
      <point x="163" y="830" type="line"/>
    </contour>
    <contour>
      <point x="986" y="1169" type="curve" smooth="yes"/>
      <point x="1107" y="1169"/>
      <point x="1168" y="1256"/>
      <point x="1168" y="1342" type="curve" smooth="yes"/>
      <point x="1168" y="1430"/>
      <point x="1107" y="1518"/>
      <point x="986" y="1518" type="curve" smooth="yes"/>
      <point x="864" y="1518"/>
      <point x="804" y="1431"/>
      <point x="804" y="1343" type="curve" smooth="yes"/>
      <point x="804" y="1256"/>
      <point x="865" y="1169"/>
    </contour>
  </outline>
</glyph>
<glyph name="f_l" format="1">
  <advance width="1340"/>
  <outline>
    <contour>
      <point x="462" y="-2" type="curve" smooth="yes"/>
      <point x="726" y="-2" type="line"/>
      <point x="726" y="628" type="line"/>
      <point x="687" y="628"/>
      <point x="829" y="628"/>
      <point x="829" y="665" type="curve" smooth="yes"/>
      <point x="829" y="1144" type="line"/>
      <point x="829" y="1144"/>
      <point x="567" y="1153"/>
      <point x="509" y="1153" type="curve" smooth="yes"/>
      <point x="432" y="1249"/>
      <point x="448" y="1236"/>
      <point x="507" y="1164" type="curve" smooth="yes"/>
      <point x="533" y="1164"/>
      <point x="608" y="1149"/>
      <point x="645" y="1146" type="curve"/>
      <point x="597" y="553" type="line"/>
      <point x="597" y="423"/>
      <point x="597" y="252"/>
      <point x="877" y="252" type="curve"/>
      <point x="984" y="252" type="line"/>
      <point x="984" y="161" type="line"/>
      <point x="887" y="161"/>
      <point x="954" y="213"/>
      <point x="954" y="253" type="curve"/>
      <point x="954" y="1244" type="line"/>
      <point x="954" y="1244"/>
      <point x="729" y="1278"/>
      <point x="603" y="1278" type="curve"/>
      <point x="413" y="1278"/>
      <point x="307" y="1243"/>
      <point x="307" y="1065" type="curve"/>
      <point x="229" y="1036" type="line"/>
      <point x="229" y="1094"/>
      <point x="159" y="1103"/>
      <point x="196" y="1103" type="curve" smooth="yes"/>
      <point x="212" y="1103"/>
      <point x="267" y="941"/>
      <point x="267" y="941" type="curve"/>
      <point x="360" y="679" type="line" smooth="yes"/>
      <point x="360" y="635"/>
      <point x="349" y="-2"/>
    </contour>
  </outline>
</glyph>
<glyph name="one.superior" format="1">
  <advance width="589"/>
  <outline>
    <contour>
      <point x="92" y="554" type="line"/>
      <point x="529" y="554" type="line"/>
      <point x="529" y="692" type="line"/>
      <point x="404" y="692" type="line"/>
      <point x="404" y="1378" type="line"/>
      <point x="224" y="1378" type="line"/>
      <point x="206" y="1318"/>
      <point x="152" y="1290"/>
      <point x="59" y="1276" type="curve"/>
      <point x="59" y="1162" type="line"/>
      <point x="219" y="1195" type="line"/>
      <point x="219" y="692" type="line"/>
      <point x="92" y="692" type="line"/>
    </contour>
  </outline>
</glyph>
<glyph name="three.superior" format="1">
  <advance width="677"/>
  <outline>
    <contour>
      <point x="316" y="548" type="curve" smooth="yes"/>
      <point x="523" y="548"/>
      <point x="641" y="652"/>
      <point x="641" y="802" type="curve" smooth="yes"/>
      <point x="641" y="908"/>
      <point x="560" y="966"/>
      <point x="487" y="988" type="curve"/>
      <point x="557" y="1019"/>
      <point x="618" y="1071"/>
      <point x="613" y="1184" type="curve" smooth="yes"/>
      <point x="607" y="1301"/>
      <point x="513" y="1387"/>
      <point x="316" y="1387" type="curve" smooth="yes"/>
      <point x="220" y="1387"/>
      <point x="113" y="1354"/>
      <point x="63" y="1318" type="curve"/>
      <point x="63" y="1170" type="line"/>
      <point x="102" y="1170" type="line"/>
      <point x="137" y="1203"/>
      <point x="205" y="1245"/>
      <point x="290" y="1245" type="curve" smooth="yes"/>
      <point x="356" y="1245"/>
      <point x="428" y="1218"/>
      <point x="428" y="1152" type="curve" smooth="yes"/>
      <point x="428" y="1075"/>
      <point x="372" y="1048"/>
      <point x="264" y="1048" type="curve" smooth="yes"/>
      <point x="221" y="1048" type="line"/>
      <point x="221" y="933" type="line"/>
      <point x="295" y="933" type="line" smooth="yes"/>
      <point x="411" y="933"/>
      <point x="456" y="886"/>
      <point x="456" y="815" type="curve" smooth="yes"/>
      <point x="456" y="716"/>
      <point x="370" y="688"/>
      <point x="281" y="689" type="curve" smooth="yes"/>
      <point x="183" y="690"/>
      <point x="126" y="732"/>
      <point x="95" y="763" type="curve"/>
      <point x="63" y="763" type="line"/>
      <point x="63" y="613" type="line"/>
      <point x="113" y="578"/>
      <point x="192" y="548"/>
    </contour>
  </outline>
</glyph>
<glyph name="two.superior" format="1">
  <advance width="701"/>
  <outline>
    <contour>
      <point x="79" y="554" type="line"/>
      <point x="640" y="554" type="line"/>
      <point x="640" y="695" type="line"/>
      <point x="313" y="695" type="line"/>
      <point x="448" y="811"/>
      <point x="620" y="981"/>
      <point x="620" y="1144" type="curve" smooth="yes"/>
      <point x="620" y="1292"/>
      <point x="521" y="1388"/>
      <point x="339" y="1388" type="curve" smooth="yes"/>
      <point x="249" y="1388"/>
      <point x="132" y="1348"/>
      <point x="91" y="1312" type="curve"/>
      <point x="129" y="1178" type="line"/>
      <point x="159" y="1200"/>
      <point x="248" y="1238"/>
      <point x="317" y="1238" type="curve" smooth="yes"/>
      <point x="392" y="1238"/>
      <point x="436" y="1206"/>
      <point x="436" y="1127" type="curve" smooth="yes"/>
      <point x="436" y="1000"/>
      <point x="199" y="783"/>
      <point x="79" y="675" type="curve"/>
    </contour>
  </outline>
</glyph>
